<svg width="940" height="400" fill="none" xmlns="http://www.w3.org/2000/svg" xmlns:xlink="http://www.w3.org/1999/xlink"><defs><linearGradient id="b" x1="488.9" y1="183" x2="492.6" y2="206.3" gradientUnits="userSpaceOnUse"><stop offset="0" stop-color="#076DB4"/><stop offset=".8" stop-color="#0461AF"/></linearGradient><linearGradient id="c" x1="486.7" y1="186.5" x2="497.3" y2="274.8" gradientUnits="userSpaceOnUse"><stop stop-color="#33BEF0"/><stop offset="1" stop-color="#0A85D9"/></linearGradient><linearGradient id="d" x1="517" y1="231.9" x2="517" y2="255.9" gradientUnits="userSpaceOnUse"><stop stop-color="#21AD64"/><stop offset="1" stop-color="#088242"/></linearGradient><linearGradient id="e" x1="512.6" y1="227" x2="512.6" y2="251.1" gradientUnits="userSpaceOnUse"><stop stop-color="#9DFFCE"/><stop offset="1" stop-color="#50D18D"/></linearGradient><linearGradient id="f" x1="506" y1="238.8" x2="519.9" y2="238.8" gradientUnits="userSpaceOnUse"><stop offset=".8" stop-color="#135D36"/><stop offset=".9" stop-color="#125933"/><stop offset="1" stop-color="#11522F"/></linearGradient><path id="g" transform="translate(-30 -38.5)" d="M1 39V.6H4v17.7h6.2V.6h3.1V39h-3.1V21.1H4V39H1Zm26.5-9.9h3a53.1 53.1 0 0 1 .1 4.4c0 2-.6 3.6-1.5 4.5-.8.9-2.3 1.3-4.4 1.3-2.2 0-3.8-.4-4.7-1.3-1-1-1.5-2.4-1.6-4.5l-.1-5.7v-6.3l.1-5.7c.1-2.1.7-3.6 1.6-4.5 1-1 2.5-1.4 4.6-1.4 2 0 3.6.4 4.5 1.3 1 .9 1.4 2.4 1.5 4.5a99.2 99.2 0 0 1 0 9.6h-9v8.5c0 1.1.3 2 .7 2.4.5.4 1.2.6 2.3.6 1 0 1.7-.2 2.1-.6.5-.5.7-1.3.8-2.4V29Zm-2.9-16.7c-1 0-1.8.2-2.3.7-.4.5-.7 1.2-.7 2.3v7.4h6v-4.5l-.1-3c0-1-.3-1.7-.8-2.2-.4-.5-1.1-.7-2-.7ZM37.4 39l-4-28.8h3.3l1.5 14 1.3 12.3h.9l1.3-12.2 1.5-14.1h3.3l-4.3 32.7c-.3 2-1 3.6-1.8 4.5-1 .9-2.5 1.3-4.6 1.3-1 0-2 0-2.9-.2V46l1.3.1h1.5c1.2 0 2-.2 2.4-.6.4-.4.7-1.2.9-2.4l.5-4.1h-2.1Zm14.1-7.6-.5-21V.6h3.4v9.8l-.5 21h-2.4ZM50 39v-4.3h5.4V39H50Z"/><path id="k" transform="translate(-77 -60)" d="M43.5 39V.6h3.2V39h-3.2Zm15.8.3c-2.2 0-3.8-.4-4.6-1.3-.8-1-1.3-2.4-1.3-4.5V12.7h-2v-2.5h2V2h3.3v8.2h4.2v2.5h-4.3v21c0 1.3.2 2 .5 2.5.3.4 1 .6 2.3.6h1c.4 0 .7 0 1-.2v2.5c-.6.2-1.3.2-2 .2Zm5.8-17.5v-4.2h5.4v4.2h-5.4Zm15.7 17.5c-2.1 0-3.6-.4-4.4-1.3-.8-1-1.3-2.4-1.3-4.5V29H78l-.1 2.6v2c0 1.2.3 2 .7 2.5.4.4 1.2.6 2.2.6 1 0 1.8-.2 2.3-.6.4-.5.7-1.3.7-2.4v-3.5c0-1.2-.1-2-.4-2.7-.2-.6-.8-1-1.6-1.4l-2.3-.7a6.5 6.5 0 0 1-3.5-2.3 9 9 0 0 1-1-4.7 20.3 20.3 0 0 1 0-2.7c0-2.1.5-3.6 1.4-4.5.8-1 2.4-1.4 4.6-1.4 2 0 3.5.4 4.3 1.3.9.9 1.3 2.4 1.4 4.5V20h-3v-4.6c0-1.2-.2-2-.6-2.4-.4-.4-1.1-.6-2.1-.6s-1.8.2-2.2.6c-.4.4-.6 1.2-.7 2.4v2.9c0 1.2.1 2.2.3 2.9.3.7.8 1.3 1.8 1.6l2.1.6c1.6.5 2.7 1.2 3.4 2.3.8 1 1.2 2.5 1.2 4.5a32.8 32.8 0 0 1-.1 3.4c0 2-.6 3.5-1.5 4.4-.8.9-2.3 1.3-4.5 1.3Zm-74 57C4.6 96.3 3 96 2.1 95 1 93.9.6 92.3.5 90a181.4 181.4 0 0 1 .1-7.9h3a93 93 0 0 0 0 8.4c0 1 .4 1.9.8 2.4.5.5 1.3.7 2.4.7 1 0 1.8-.2 2.3-.7.5-.5.7-1.3.8-2.4a34 34 0 0 0 0-4.6v-2.6c0-1.2-.2-2.2-.5-3-.3-.8-.9-1.4-1.8-1.6L5.1 78c-1.9-.4-3.1-1.2-3.7-2.4-.6-1.2-.9-2.9-1-5a113 113 0 0 1 .1-7c0-2.3.5-3.9 1.5-4.8 1-1 2.6-1.5 4.8-1.5 2.1 0 3.7.5 4.6 1.5 1 1 1.5 2.5 1.6 4.8v7.3H9.8a155.6 155.6 0 0 0 0-7.8C9.8 61 8.8 60 6.8 60c-1.1 0-1.9.3-2.4.8-.4.4-.7 1.2-.7 2.3A73 73 0 0 0 4 73.7c.4.7 1 1.2 2 1.5l2.3.5c2 .5 3.1 1.3 3.7 2.5.6 1.3 1 3 1 5a79.7 79.7 0 0 1 0 4.5V90c0 2.3-.6 3.9-1.6 4.9-1 1-2.5 1.4-4.7 1.4Zm14.9 0c-1.6 0-2.7-.5-3.4-1.4a7 7 0 0 1-1.3-4l-.1-1.2v-1.3a10 10 0 0 1 1.2-4.3c.7-1.2 2-2.3 3.7-3.4a32.6 32.6 0 0 1 4.3-2.2v-6c0-1-.2-1.8-.6-2.3-.4-.5-1.1-.8-2.2-.8-.9 0-1.6.2-2 .6-.5.4-.7 1.2-.7 2.4a39.6 39.6 0 0 0 0 4.6h-3.1a155.7 155.7 0 0 1 0-4.3c0-2 .5-3.5 1.4-4.4 1-1 2.4-1.4 4.6-1.4 2.2 0 3.7.5 4.5 1.5.8 1 1.2 2.5 1.3 4.7V96H26v-2.6h-.5c-.4 1-.9 1.7-1.5 2.2-.5.4-1.4.7-2.4.7Zm1-2.5c1.7 0 2.8-.9 3.4-2.7v-10a28.1 28.1 0 0 0-3.7 2.2c-.9.7-1.5 1.4-1.8 2.2-.3.9-.5 1.8-.5 3a11.2 11.2 0 0 0 0 2.2c0 1 .4 1.8.8 2.3.5.6 1.1.8 1.9.8ZM34.5 96V57.6h3.2V96h-3.2Zm15.4.3c-2.2 0-3.7-.4-4.6-1.3-.8-1-1.2-2.4-1.3-4.5V69.7h-2v-2.5h2V59h3.4v8.2h4.2v2.5h-4.3v21c0 1.3.1 2 .4 2.5.4.4 1.1.6 2.3.6H51c.3 0 .6 0 1-.2v2.5c-.7.2-1.4.2-2.2.2Zm13.8-10.2h3a53.1 53.1 0 0 1 .1 4.4c0 2-.6 3.6-1.4 4.5-1 .9-2.4 1.3-4.5 1.3-2.2 0-3.8-.4-4.7-1.3-1-1-1.5-2.4-1.6-4.5l-.1-5.7v-6.3l.1-5.7c.1-2.1.7-3.6 1.6-4.5 1-1 2.5-1.4 4.6-1.4 2 0 3.6.4 4.5 1.3 1 .9 1.4 2.4 1.5 4.5a99.2 99.2 0 0 1 0 9.6h-9v8.5c0 1.1.3 2 .7 2.4.5.4 1.3.6 2.3.6 1 0 1.7-.2 2.2-.6.4-.5.7-1.3.7-2.4V86Zm-2.9-16.7c-1 0-1.8.2-2.3.7-.4.5-.6 1.2-.6 2.3l-.1 3.9v3.5h6v-7.5c-.1-1-.4-1.7-.8-2.2-.5-.5-1.2-.7-2.2-.7Zm19.5-11.8h3.2V96h-3.2v-2.5h-.6c-.5.9-1 1.6-1.7 2.1a4 4 0 0 1-2.5.7c-1.6 0-2.7-.4-3.4-1.3-.8-.9-1.2-2.3-1.2-4.4a378.8 378.8 0 0 1 0-18c0-2 .4-3.5 1.2-4.4.8-.9 1.9-1.3 3.4-1.3 1.1 0 2 .2 2.6.7.6.5 1.2 1.2 1.6 2.1h.6V57.6Zm-3.8 36.2c1.9 0 3.2-1 3.8-2.9V72.3a4 4 0 0 0-1.5-2.2c-.6-.5-1.4-.7-2.3-.7-.8 0-1.4.2-1.8.7-.4.4-.6 1.2-.6 2.2-.2 6.7-.2 12.8 0 18.6 0 1 .2 1.8.5 2.3.4.4 1 .6 2 .6Zm12 2.2V57.6h10.9v2.9h-7.7v14.8h7.2V78h-7.2V96h-3.1Zm13.8-34.6v-3.8h5v3.8h-5Zm1 34.6V67.2h3.1V96h-3.1Zm13.8.3c-2.1 0-3.6-.4-4.4-1.3-.8-1-1.3-2.4-1.3-4.5V86h2.8v4.6c0 1.2.2 2 .7 2.5.4.4 1.1.6 2.2.6 1 0 1.8-.2 2.3-.6.4-.5.7-1.3.7-2.4v-3.5c0-1.2-.1-2-.4-2.7-.2-.6-.8-1-1.6-1.4l-2.3-.7a6.5 6.5 0 0 1-3.5-2.3 9 9 0 0 1-1-4.7 20.3 20.3 0 0 1 0-2.7c0-2.1.5-3.6 1.4-4.5.8-1 2.4-1.4 4.6-1.4 2 0 3.5.4 4.3 1.3.9.9 1.3 2.4 1.4 4.5V77h-3v-4.6c0-1.2-.2-2-.6-2.4-.4-.4-1.1-.6-2.1-.6s-1.8.2-2.2.6c-.4.4-.6 1.2-.7 2.4v2.9c0 1.2.1 2.2.3 2.9.2.7.8 1.3 1.8 1.6l2.1.6c1.5.5 2.7 1.2 3.4 2.3.8 1 1.2 2.5 1.2 4.5a33 33 0 0 1-.1 3.4c0 2-.6 3.5-1.5 4.4-.8.9-2.4 1.3-4.5 1.3Zm10.3-.3V57.6h3.2v12.1h.7c.5-1 1-1.6 1.6-2.1.7-.5 1.5-.7 2.6-.7 1.5 0 2.6.4 3.4 1.3.8.9 1.2 2.3 1.2 4.4V96h-3.2V72.3c0-1-.2-1.8-.6-2.2-.4-.5-1-.7-1.9-.7-2 0-3.2 1-3.8 2.9V96h-3.2Z"/><clipPath id="a"><path fill="#fff" transform="translate(451.5 175.5)" d="M0 0H78V82H0z"/></clipPath><g id="n"><rect width="718" height="400" rx="15" fill="#0073C6"/><path d="M42.2 31h1.7v13h-1.7V31Zm7.1 2.3h-1.2l-2.3-2.5h2l1.5 2.5Zm3.3 1.3H54v1.3l1-1a3 3 0 0 1 1.8-.5c.8 0 1.4.2 1.8.5.3.2.5.6.8 1 .3-.5.7-1 1.2-1.2.5-.2 1-.3 1.6-.3 1.3 0 2.1.4 2.6 1.3.2.5.3 1.2.3 2V44h-1.6v-6.5c0-.7-.2-1.1-.5-1.3-.3-.3-.7-.4-1.1-.4-.6 0-1.2.2-1.6.6-.5.5-.7 1.2-.7 2.1V44h-1.6v-6.1c0-.7 0-1.1-.2-1.4-.3-.5-.7-.7-1.4-.7-.6 0-1.1.2-1.6.7-.5.5-.7 1.3-.7 2.5v5h-1.6v-9.4Zm25.6-3.9c1.7 0 3 .5 3.8 1.3 1 .9 1.4 1.9 1.5 3h-1.7c-.2-.9-.5-1.5-1.1-2-.6-.5-1.4-.7-2.4-.7-1.3 0-2.3.4-3.1 1.3-.8.9-1.2 2.3-1.2 4.1a6 6 0 0 0 1 3.7c.8 1 1.8 1.4 3.2 1.4 1.3 0 2.3-.5 3-1.5.3-.5.6-1.2.8-2h1.7a5.8 5.8 0 0 1-1.5 3.4 5.4 5.4 0 0 1-4.2 1.6c-1.5 0-2.8-.4-3.8-1.3-1.3-1.2-2-3-2-5.6 0-1.9.5-3.5 1.5-4.7 1.1-1.3 2.6-2 4.5-2Zm9 3.9v6.2c0 .5 0 1 .2 1.2.3.6.8.9 1.6.9 1 0 1.8-.5 2.2-1.5.2-.5.3-1.3.3-2.2v-4.6h1.6V44h-1.5v-1.4c-.1.4-.4.7-.7 1-.6.4-1.3.7-2.2.7-1.3 0-2.3-.5-2.7-1.4a4 4 0 0 1-.4-2v-6.3h1.6Zm8.5 0h1.5v1.6c0-.3.4-.7.9-1.1a2.3 2.3 0 0 1 1.8-.7h.3v1.7a2.3 2.3 0 0 0-.5 0c-.8 0-1.4.2-1.8.7-.4.5-.7 1.1-.7 1.8V44h-1.5v-9.4Zm6 0h1.5v1.6c0-.3.4-.7.9-1.1a2.3 2.3 0 0 1 1.8-.7h.3v1.7a2.4 2.4 0 0 0-.5 0c-.8 0-1.4.2-1.8.7-.5.5-.7 1.1-.7 1.8V44h-1.6v-9.4Zm9.8-.2A4.3 4.3 0 0 1 115 36c.3.4.5 1 .6 1.6l.2 2.1h-7c.1 1 .3 1.7.7 2.3.5.6 1.1.9 2 .9a2.5 2.5 0 0 0 2.6-2h1.5c0 .4-.1.8-.4 1.2a3.7 3.7 0 0 1-2.6 2l-1.2.1a4 4 0 0 1-3-1.2 5 5 0 0 1-1.2-3.6c0-1.5.4-2.8 1.2-3.7a4 4 0 0 1 3.2-1.4Zm2.5 4.1c0-.6-.2-1.2-.4-1.6-.4-.8-1.2-1.1-2.2-1.1-.7 0-1.3.2-1.8.7a3 3 0 0 0-.8 2h5.2Zm7.2-4.2c1.1 0 2 .3 2.6.8.7.5 1.1 1.4 1.2 2.7h-1.5c-.1-.6-.3-1.1-.6-1.5-.4-.4-1-.6-1.7-.6-1 0-1.7.5-2.1 1.5-.3.6-.4 1.4-.4 2.4s.2 1.7.6 2.4c.4.6 1 1 1.8 1a2 2 0 0 0 1.6-.7c.4-.4.7-1 .8-1.6h1.5c-.1 1.2-.6 2.1-1.3 2.7-.7.6-1.6.9-2.7.9-1.2 0-2.2-.5-3-1.4-.7-.9-1-2-1-3.3 0-1.7.4-3 1.2-4 .8-.8 1.8-1.3 3-1.3ZM127 32h1.6v2.6h1.5v1.3h-1.5V42c0 .4.1.6.4.7h1.1V44l-.5.1h-.7c-.7 0-1.2-.1-1.5-.5-.2-.4-.4-.9-.4-1.5V36h-1.2v-1.3h1.2V32Zm4.8-1h1.6v13h-1.6V31Zm9.8 3.6h1.8a548.8 548.8 0 0 0-3 8c-.9 2.5-1.5 4-1.9 4.5-.4.5-1 .8-2 .8a3.9 3.9 0 0 1-.9-.2v-1.4a5.4 5.4 0 0 0 1 .2c.2 0 .4 0 .6-.2l.3-.3.3-.8c.2-.4.4-.7.4-1l-3.4-9.6h1.8l2.5 7.7 2.5-7.7ZM150 31h9v1.6h-7.2v3.9h6.3V38h-6.3V44H150V31ZM164.4 43c1 0 1.8-.4 2.1-1.2a6 6 0 0 0 .6-2.7c0-.8-.1-1.6-.4-2.1-.4-.9-1.2-1.3-2.3-1.3-1 0-1.7.4-2.1 1.1-.4.7-.7 1.6-.7 2.7 0 1 .3 1.8.7 2.5.4.6 1.1 1 2 1Zm0-8.7c1.3 0 2.3.4 3.1 1.2.9.8 1.3 2 1.3 3.6 0 1.5-.4 2.8-1.1 3.8-.8 1-2 1.4-3.5 1.4-1.3 0-2.3-.4-3-1.3-.8-.8-1.2-2-1.2-3.5 0-1.6.4-2.8 1.2-3.8a4 4 0 0 1 3.2-1.4Zm9.9 0c1 0 2 .3 2.6.8.7.5 1 1.4 1.2 2.7h-1.6c0-.6-.3-1.1-.6-1.5-.3-.4-.9-.6-1.6-.6-1 0-1.7.5-2.2 1.5-.2.6-.4 1.4-.4 2.4s.2 1.7.6 2.4c.4.6 1 1 1.9 1a2 2 0 0 0 1.5-.7c.4-.4.7-1 .8-1.6h1.6c-.2 1.2-.6 2.1-1.3 2.7-.7.6-1.6.9-2.7.9-1.3 0-2.2-.5-3-1.4-.7-.9-1-2-1-3.3 0-1.7.3-3 1.1-4 .8-.8 1.9-1.3 3.1-1.3Zm7 .3v6.2c0 .5 0 1 .2 1.2.3.6.8.9 1.6.9 1 0 1.8-.5 2.2-1.5.2-.5.3-1.3.3-2.2v-4.6h1.6V44h-1.5v-1.4l-.7 1c-.6.4-1.4.7-2.2.7-1.4 0-2.3-.5-2.8-1.4a4 4 0 0 1-.4-2v-6.3h1.7Zm9.3 6.4c0 .6.2 1 .4 1.3.4.5 1.1.7 2.1.7a3 3 0 0 0 1.5-.4c.5-.2.7-.6.7-1.1a1 1 0 0 0-.5-1l-1.4-.4-1.2-.3c-.8-.2-1.4-.4-1.8-.7a2 2 0 0 1-1-1.8c0-.9.3-1.6 1-2.1.6-.6 1.4-.9 2.5-.9 1.4 0 2.5.5 3 1.3.5.5.7 1 .7 1.7H195c0-.4-.2-.7-.4-1-.4-.4-1-.6-1.9-.6-.6 0-1 .1-1.4.3a1 1 0 0 0-.4 1c0 .4.2.7.6 1l1 .3 1 .3a8 8 0 0 1 2.4.8c.6.4.9 1 .9 1.9 0 .8-.3 1.5-1 2.1-.6.7-1.6 1-2.9 1-1.4 0-2.4-.4-3-1-.5-.6-.9-1.4-.9-2.4h1.5Zm8-6.4h1.7V44h-1.6v-9.4Zm0-3.5h1.7v1.8h-1.6V31Zm4.1 3.5h1.5v1.3c.4-.5 1-1 1.4-1.2.5-.2 1-.3 1.7-.3 1.3 0 2.2.4 2.7 1.4.2.5.4 1.2.4 2.2v6h-1.6v-6c0-.5-.1-1-.3-1.3-.3-.6-.8-.9-1.5-.9l-1 .1c-.4.1-.8.4-1 .8-.4.3-.5.6-.6 1l-.1 1.4V44h-1.6v-9.4Zm13.3-.2c.8 0 1.4.2 2 .6l.9.9v-1.2h1.4v8.5c0 1.2-.1 2.2-.5 2.9-.6 1.2-1.9 1.9-3.7 1.9-1 0-1.9-.2-2.6-.7-.6-.5-1-1.2-1.1-2.1h1.6c0 .4.2.7.4 1 .4.3 1 .5 1.7.5 1.2 0 2-.5 2.4-1.3.2-.5.3-1.4.3-2.7-.3.5-.7.8-1.1 1-.5.3-1 .4-1.8.4-1 0-1.9-.3-2.7-1-.7-.8-1.1-2-1.1-3.7 0-1.5.4-2.8 1.1-3.7.8-.8 1.7-1.3 2.8-1.3Zm2.9 4.9c0-1.2-.3-2-.7-2.6-.5-.6-1.1-.9-1.9-.9-1 0-1.8.5-2.3 1.6-.2.5-.3 1.3-.3 2.2 0 1 .2 1.8.7 2.4.4.5 1 .8 1.7.8 1.1 0 2-.5 2.4-1.5a5 5 0 0 0 .4-2Zm4.7-4.6h1.8v2h-1.8v-2Zm0 7.4h1.8V44h-1.8v-2ZM219.1 244.5c-.5 0-1-.2-1.5-.6-.4-.3-.6-.8-.6-1.3v-27.2h-6.3v27.2c0 .2 0 .5-.2.7a2 2 0 0 1-.4.6 2 2 0 0 1-1.5.6 2.2 2.2 0 0 1-1.5-.6 2 2 0 0 1-.6-1.3v-27.2h-6.2V233a1.8 1.8 0 0 1-.6 1.3 2 2 0 0 1-1.5.6 2.2 2.2 0 0 1-1.4-.6 2 2 0 0 1-.6-1.3v-17.5h-6.3V233c0 .5-.2 1-.6 1.3-.4.4-.9.6-1.5.6a23 23 0 0 1-16.2-6.3 19.9 19.9 0 0 1-6.6-15c0-5.9 2.2-11 6.6-15.1 4.5-4.1 10-6.2 16.2-6.2.6 0 1.1.2 1.5.6.4.3.6.8.6 1.3v17.5h6.3V194c0-.5.2-1 .6-1.3.4-.4.9-.6 1.4-.6.6 0 1.1.2 1.5.6.4.3.6.8.6 1.3v17.5h6.2v-27.2c0-.5.3-1 .6-1.3.4-.4 1-.6 1.5-.6.6 0 1 .2 1.5.6.4.3.6.8.6 1.3v27.2h6.3v-27.2c0-.5.2-1 .6-1.3.4-.4 1-.6 1.5-.6.6 0 1 .2 1.5.6.4.3.6.8.6 1.3v27.2h6.1V194c0-.2 0-.5.2-.7 0-.3.2-.5.4-.6a2 2 0 0 1 1.5-.6 2.2 2.2 0 0 1 1.5.6l.4.6.2.7v17.5h6.2V194a1.8 1.8 0 0 1 .6-1.3 2 2 0 0 1 1.5-.6 2.2 2.2 0 0 1 1.4.6 2 2 0 0 1 .6 1.3v17.5h6.3v-7.8c0-.5.2-1 .6-1.4.4-.3.9-.5 1.5-.5.5 0 1 .2 1.4.5.4.4.6.9.6 1.4v7.8h7.5l9.8-9.2a2.1 2.1 0 0 1 1.4-.5 2.2 2.2 0 0 1 1.5.5 2 2 0 0 1 .6 1.4 1.8 1.8 0 0 1-.6 1.4l-9 8.3 9 8.3a2 2 0 0 1 .6 1.4 1.8 1.8 0 0 1-.6 1.4 2.1 2.1 0 0 1-1.5.5 2.2 2.2 0 0 1-1.4-.5l-9.8-9.2h-7.5v7.8c0 .5-.2 1-.6 1.4-.4.3-.9.5-1.4.5-.6 0-1.1-.2-1.5-.5-.4-.4-.6-.9-.6-1.4v-7.8h-6.3V233l-.1.7a2 2 0 0 1-.5.6 2 2 0 0 1-1.4.6 2.2 2.2 0 0 1-1.5-.6 2 2 0 0 1-.5-.6l-.1-.7v-17.5h-6.2V233a1.8 1.8 0 0 1-.6 1.3 2 2 0 0 1-1.5.6 2.2 2.2 0 0 1-1.5-.6 2 2 0 0 1-.6-1.3v-17.5h-6.1v27.2a1.8 1.8 0 0 1-.6 1.3 2 2 0 0 1-1.5.6Zm-33.3-48.3c-4.3.3-8 2-11.2 5a16.3 16.3 0 0 0-5.4 12.3 16 16 0 0 0 5.4 12.3c3.2 3 6.9 4.6 11.2 5v-34.6ZM181.8 281.5v-19.2h5.7v1.7h-3.9v7h3.7v1.6h-3.7v8.9h-1.8Zm7.2-17.2v-2h2.7v2H189Zm.4 17.2v-14.4h1.9v14.4h-1.9Zm7.4.2c-1.2 0-2-.3-2.4-.8-.4-.4-.7-1.2-.7-2.3a21.3 21.3 0 0 1 0-2.1h1.7a18.6 18.6 0 0 0 0 2.3c0 .5 0 1 .3 1.1.2.2.6.3 1 .3.6 0 1 0 1.2-.3.2-.2.3-.6.4-1.1v-1.6c0-.6-.1-1-.3-1.3 0-.3-.3-.5-.7-.7l-1.2-.3c-.9-.3-1.5-.7-1.9-1.2-.3-.5-.5-1.3-.5-2.4a8.8 8.8 0 0 1 0-1.2c0-1.2.2-2 .7-2.4.4-.5 1.3-.8 2.4-.8 1.2 0 2 .3 2.4.8.4.4.7 1.2.7 2.3v2h-1.7V270c0-.6-.1-1-.3-1.2-.2-.2-.6-.3-1-.3-.6 0-1 0-1.1.3-.2.2-.3.6-.3 1.1v1.4l.1 1.3c.1.4.4.6.9.8l1 .3c1 .3 1.5.6 1.9 1.2.4.5.6 1.2.6 2.3v1.5c0 1.1-.3 1.9-.8 2.4-.5.4-1.3.7-2.4.7Zm5.3-.2v-19.2h1.8v6.1h.4c.3-.5.6-.8.9-1 .3-.3.7-.5 1.3-.5.8 0 1.4.3 1.8.7.4.5.6 1.3.6 2.3v11.6h-1.8v-11.7c0-.5-.2-.9-.3-1.1-.2-.2-.5-.4-1-.4a2 2 0 0 0-1.1.4 2 2 0 0 0-.8 1v11.8h-1.8Zm9 0v-19.2h3.1c1.2 0 2 .3 2.6.8.5.5.8 1.3.8 2.5a38.3 38.3 0 0 1 0 3.5c0 .7-.1 1.2-.4 1.6a2 2 0 0 1-1 1v.4c.4.1.8.4 1 .8.3.4.4 1 .4 1.7a75.2 75.2 0 0 1 0 3.6c0 1.2-.3 2-.8 2.5s-1.4.8-2.6.8h-3Zm2-10.5h1.1c1 0 1.6-.7 1.6-2v-3.5c0-1-.6-1.5-1.6-1.5H213v7Zm0 8.8h1.1c1 0 1.6-.5 1.6-1.6v-3.5c0-.8-.1-1.3-.4-1.6-.3-.3-.7-.5-1.2-.5H213v7.2Zm10 1.9c-1.2 0-2-.3-2.5-.8s-.8-1.4-.8-2.5l-.1-2.7v-5.5c.1-1.1.4-2 .9-2.5s1.3-.8 2.5-.8 2 .3 2.5.8.8 1.4.9 2.5a135.2 135.2 0 0 1 0 8.2c-.1 1.1-.4 2-.9 2.5-.4.5-1.3.8-2.5.8Zm0-1.5c.5 0 1 0 1.1-.3.3-.2.4-.6.4-1.2a101.7 101.7 0 0 0-.3-10c-.3-.2-.7-.3-1.2-.3s-.9 0-1.1.3c-.2.2-.4.6-.4 1.2a245.7 245.7 0 0 0 0 8.8c0 .6.2 1 .4 1.2.2.2.6.3 1.1.3Zm5.6 1.3v-14.4h1.8v1.3h.4c.3-.5.5-.8.9-1 .3-.3.8-.5 1.3-.5.8 0 1.4.3 1.8.7.4.5.6 1.3.6 2.3v11.6h-1.8v-11.7c0-.5-.2-.9-.3-1.1-.2-.2-.5-.4-1-.4a2 2 0 0 0-1.1.4 2 2 0 0 0-.8 1v11.8h-1.8Zm14-5h1.7a10.7 10.7 0 0 1 0 2.1c0 1-.3 1.9-.8 2.3-.4.5-1.2.8-2.4.8-1.1 0-2-.3-2.5-.8-.5-.4-.7-1.2-.8-2.3V270c0-1 .4-1.9.9-2.3.5-.5 1.3-.8 2.4-.8 1.1 0 2 .3 2.4.8.5.4.8 1.2.8 2.3a48.7 48.7 0 0 1 0 4.7h-4.7a80.7 80.7 0 0 0 .4 5.2c.2.2.6.3 1.1.3.5 0 .9 0 1-.3.3-.2.4-.6.4-1.1v-2.3Zm-1.5-8.1c-.5 0-.9 0-1 .3-.3.2-.4.6-.4 1.1a64.2 64.2 0 0 1 0 3.5h2.9v-3.5c0-.5-.2-.9-.4-1-.3-.3-.6-.4-1-.4Z" fill="#fff"/><g clip-path="url(#a)"><path d="M519.8 199.4h-58.5v-10.2c0-2 1.4-3.4 3.2-3.4h52c1.8 0 3.3 1.5 3.3 3.4v10.2Z" fill="url(#b)"/><path d="M461.3 199.4v44.4c0 2 1.4 3.4 3.2 3.4h52c1.8 0 3.3-1.5 3.3-3.4v-44.4h-58.5Z" fill="url(#c)"/><path d="M485.6 214.8h-3.2c-1 0-1.6-.8-1.6-1.7v-3.4c0-1 .7-1.7 1.6-1.7h3.2c1 0 1.6.7 1.6 1.7v3.4c0 1-.7 1.7-1.6 1.7ZM498.6 214.8h-3.2c-1 0-1.6-.8-1.6-1.7v-3.4c0-1 .7-1.7 1.6-1.7h3.2c1 0 1.6.7 1.6 1.7v3.4c0 1-.7 1.7-1.6 1.7ZM511.6 214.8h-3.2c-1 0-1.6-.8-1.6-1.7v-3.4c0-1 .7-1.7 1.6-1.7h3.2c1 0 1.6.7 1.6 1.7v3.4c0 1-.7 1.7-1.6 1.7ZM485.6 226.8h-3.2c-1 0-1.6-.8-1.6-1.8v-3.4c0-1 .7-1.7 1.6-1.7h3.2c1 0 1.6.8 1.6 1.7v3.4c0 1-.7 1.8-1.6 1.8ZM472.6 226.8h-3.2c-1 0-1.6-.8-1.6-1.8v-3.4c0-1 .7-1.7 1.6-1.7h3.2c1 0 1.6.8 1.6 1.7v3.4c0 1-.7 1.8-1.6 1.8ZM498.6 226.8h-3.2c-1 0-1.6-.8-1.6-1.8v-3.4c0-1 .7-1.7 1.6-1.7h3.2c1 0 1.6.8 1.6 1.7v3.4c0 1-.7 1.8-1.6 1.8ZM485.6 238.7h-3.2c-1 0-1.6-.8-1.6-1.7v-3.4c0-1 .7-1.7 1.6-1.7h3.2c1 0 1.6.7 1.6 1.7v3.4c0 1-.7 1.7-1.6 1.7ZM472.6 238.7h-3.2c-1 0-1.6-.8-1.6-1.7v-3.4c0-1 .7-1.7 1.6-1.7h3.2c1 0 1.6.7 1.6 1.7v3.4c0 1-.7 1.7-1.6 1.7ZM498.6 238.7h-3.2c-1 0-1.6-.8-1.6-1.7v-3.4c0-1 .7-1.7 1.6-1.7h3.2c1 0 1.6.7 1.6 1.7v3.4c0 1-.7 1.7-1.6 1.7ZM511.6 226.8h-3.2c-1 0-1.6-.8-1.6-1.8v-3.4c0-1 .7-1.7 1.6-1.7h3.2c1 0 1.6.8 1.6 1.7v3.4c0 1-.7 1.8-1.6 1.8Z" fill="#fff"/><path opacity=".1" d="M474.3 185.8v6c0 .4-.4.8-.9.8a.8.8 0 0 1-.8-.9v-6h-3.2v6c0 2.4 1.8 4.3 4 4.3 2.3 0 4.1-2 4.1-4.3v-6h-3.3Z" fill="#fff"/><path opacity=".1" d="M475 185.8v6c0 .9-.7 1.6-1.6 1.6-.9 0-1.6-.7-1.6-1.7v-6h-1.6v6c0 2 1.4 3.4 3.2 3.4 1.8 0 3.3-1.5 3.3-3.4v-6H475ZM508.4 185.8v6c0 .4-.4.8-.8.8a.8.8 0 0 1-.9-.9v-6h-3.2v6c0 2.4 1.8 4.3 4 4.3 2.3 0 4.1-2 4.1-4.3v-6h-3.2Z" fill="#fff"/><path opacity=".1" d="M509.2 185.8v6c0 .9-.7 1.6-1.6 1.6-1 0-1.7-.7-1.7-1.7v-6h-1.6v6c0 2 1.5 3.4 3.3 3.4 1.8 0 3.2-1.5 3.2-3.4v-6h-1.6Z" fill="#fff"/><path d="M507.6 194.3a2.5 2.5 0 0 1-2.5-2.6v-8.5c0-1.4 1.1-2.6 2.5-2.6 1.3 0 2.4 1.2 2.4 2.6v8.5c0 1.4-1 2.6-2.4 2.6ZM473.4 194.3a2.5 2.5 0 0 1-2.4-2.6v-8.5c0-1.4 1-2.6 2.4-2.6s2.5 1.2 2.5 2.6v8.5c0 1.4-1.1 2.6-2.5 2.6Z" fill="#54DAFF"/><path d="M526.6 255.9h-19.2c-.8 0-1.4-.7-1.4-1.6v-21c0-.8.6-1.5 1.4-1.5h19.2c.8 0 1.4.7 1.4 1.6v20.9c0 .9-.6 1.6-1.4 1.6Z" fill="url(#d)"/><path opacity=".1" d="M525 231.8h-19v20.9h16.4c1.5 0 2.7-1.3 2.7-3v-18Z" fill="#fff"/><path opacity=".1" d="M524.3 231.8H506v20h16.3c1.1 0 2-1 2-2.2v-17.8Z" fill="#fff"/><path d="M522.1 251h-19c-.9 0-1.6-.7-1.6-1.5v-21c0-.8.7-1.5 1.5-1.5h19.1c.9 0 1.5.7 1.5 1.6v20.9c0 .8-.6 1.6-1.5 1.6Z" fill="url(#e)"/><path d="m510.6 244.4-4.4-4.8a.9.9 0 0 1 0-1.2l1-1c.3-.4.8-.4 1 0l2.9 3 6.5-7.1c.3-.3.8-.3 1 0l1.1 1.1c.3.3.3.8 0 1.2l-8 8.8c-.4.3-.8.3-1.1 0Z" fill="url(#f)"/></g><path d="M441.5 264.3v-2h2.7v2h-2.7Zm.4 17.2v-14.4h1.9v14.4h-1.9Zm7.9.2c-1.2 0-2-.3-2.6-.8-.5-.5-.8-1.4-.8-2.6v-12.8c0-1.1.3-2 .8-2.5.5-.6 1.4-.9 2.5-.9 1.2 0 2 .3 2.6.8.5.5.8 1.4.8 2.6V269h-1.8v-3.8c0-.5-.2-1-.4-1.1-.2-.3-.6-.4-1.2-.4-.5 0-.8.1-1 .4-.3.2-.4.6-.5 1.1a320.5 320.5 0 0 0 0 13.4c0 .5.2 1 .4 1.2.3.2.6.3 1.2.3.5 0 1 0 1.2-.3.2-.3.4-.7.4-1.2v-4h1.8a75.9 75.9 0 0 1 0 3.7c0 1.2-.3 2.1-.9 2.6-.5.5-1.3.8-2.5.8Zm8.8 0c-1.2 0-2-.3-2.6-.8-.5-.5-.7-1.4-.8-2.6a81.2 81.2 0 0 1 0-3.8h1.8a44.4 44.4 0 0 0 0 4.1c0 .5.2 1 .4 1.2.3.2.7.3 1.2.3s.9 0 1.1-.3c.3-.3.4-.7.4-1.2a34.2 34.2 0 0 0 0-3.5c0-.5 0-1-.2-1.4-.2-.4-.5-.6-1-.7l-1.3-.4c-1-.2-1.6-.6-2-1.3-.2-.6-.4-1.4-.4-2.6v-3.2c0-1.2.3-2 .8-2.6.5-.5 1.4-.8 2.6-.8 1.1 0 2 .3 2.5.8s.8 1.4.8 2.6a25.8 25.8 0 0 1 0 3.5H460a76.8 76.8 0 0 0 0-3.8c0-1-.5-1.5-1.5-1.5-.6 0-1 .1-1.2.4-.2.2-.3.6-.4 1a32.9 32.9 0 0 0 .3 5.2c.1.3.5.5 1 .7l1.2.3c1 .2 1.6.6 2 1.3.3.6.4 1.5.5 2.5v3.2c0 1.2-.4 2-.9 2.6-.5.5-1.3.8-2.5.8Zm14 0c-1.2 0-2-.3-2.6-.8-.5-.5-.8-1.4-.8-2.6v-12.8c0-1.1.3-2 .8-2.5.5-.6 1.4-.9 2.5-.9 1.2 0 2 .3 2.6.8.5.5.8 1.4.8 2.6V269h-1.8v-3.8c0-.5-.2-1-.4-1.1-.3-.3-.6-.4-1.2-.4-.5 0-.9.1-1 .4-.3.2-.5.6-.5 1.1a320.5 320.5 0 0 0 0 13.4c0 .5.2 1 .4 1.2.3.2.6.3 1.1.3.6 0 1 0 1.3-.3.2-.3.4-.7.4-1.2v-4h1.8a75.9 75.9 0 0 1 0 3.7c0 1.2-.3 2.1-.9 2.6-.5.5-1.4.8-2.6.8Zm8.7 0c-1.2 0-2-.3-2.5-.8s-.8-1.4-.8-2.5v-8.2c0-1.1.3-2 .8-2.5s1.3-.8 2.5-.8 2 .3 2.6.8c.5.5.7 1.4.8 2.5a135.2 135.2 0 0 1 0 8.2c0 1.1-.3 2-.8 2.5s-1.4.8-2.6.8Zm0-1.5c.6 0 1 0 1.2-.3.2-.2.3-.6.3-1.2a101.7 101.7 0 0 0-.3-10c-.2-.2-.6-.3-1.2-.3-.5 0-.9 0-1.1.3-.2.2-.3.6-.4 1.2a245.7 245.7 0 0 0 0 8.8c0 .6.2 1 .4 1.2.2.2.6.3 1.1.3Zm5.6 1.3v-14.4h1.9v1.3h.4c.2-.5.5-.8.8-1 .3-.3.8-.5 1.3-.5.8 0 1.4.3 1.8.7.4.5.6 1.3.6 2.3v11.6H492v-11.7c0-.5-.1-.9-.3-1.1-.2-.2-.5-.4-1-.4a2 2 0 0 0-1 .4 2 2 0 0 0-.8 1v11.8h-1.9Zm10.7 0-2-14.4h2l.8 7.3.5 5.7h.4l.6-5.7.8-7.3h2l-2 14.4h-3.1Zm11.5-5h1.8a10.7 10.7 0 0 1 0 2.1c0 1-.3 1.9-.8 2.3-.5.5-1.3.8-2.4.8-1.1 0-2-.3-2.5-.8-.5-.4-.8-1.2-.8-2.3V270c0-1 .3-1.9.8-2.3.6-.5 1.4-.8 2.5-.8s1.9.3 2.4.8c.5.4.8 1.2.8 2.3a48.7 48.7 0 0 1 0 4.7h-4.7a80.7 80.7 0 0 0 .4 5.2c.2.2.6.3 1 .3.6 0 1 0 1.1-.3.3-.2.4-.6.4-1.1v-2.3Zm-1.4-8.1c-.5 0-.9 0-1.1.3-.2.2-.4.6-.4 1.1a64.2 64.2 0 0 1 0 3.5h3v-3.5c-.1-.5-.3-.9-.5-1-.2-.3-.5-.4-1-.4Zm5.4 13.1v-14.4h1.8v1.4h.4c.1-.5.3-.9.6-1.1a2 2 0 0 1 1.2-.3h.8v1.5h-.7c-.7 0-1.3 0-1.6.3a2 2 0 0 0-.7 1.2v11.4h-1.8Zm10.5.2c-1.2 0-2-.3-2.5-.8-.5-.4-.7-1.2-.7-2.3v-10h-1V267h1v-4h1.9v4h2.1v1.5h-2.2v10.2c0 .5 0 1 .3 1.1.1.2.5.3 1.1.3h1.1v1.3l-1.1.2Zm6 0c-1.2 0-2-.3-2.6-.8-.5-.5-.8-1.4-.8-2.5v-8.2c0-1.1.3-2 .8-2.5s1.3-.8 2.5-.8c1.3 0 2.1.3 2.6.8s.7 1.4.8 2.5a135.2 135.2 0 0 1 0 8.2c0 1.1-.3 2-.8 2.5s-1.3.8-2.6.8Zm0-1.5c.5 0 .8 0 1-.3.3-.2.4-.6.4-1.2a101.7 101.7 0 0 0-.3-10c-.2-.2-.6-.3-1.2-.3-.5 0-.9 0-1 .3-.3.2-.4.6-.5 1.2a245.7 245.7 0 0 0 0 8.8c0 .6.2 1 .4 1.2.3.2.6.3 1.1.3Zm5.5 1.3v-14.4h1.9v1.4h.3c.2-.5.4-.9.7-1.1a2 2 0 0 1 1.2-.3h.8v1.5h-.8c-.7 0-1.2 0-1.6.3a2 2 0 0 0-.6 1.2v11.4H535Z" fill="#fff"/></g></defs><g transform="translate(20 20)"><rect width="900" height="360" rx="15" fill="#F4F5F6"/><g fill="#333"><g opacity="0"><g transform="translate(450 180)"><use href="#g"><animateTransform attributeName="transform" type="scale" values="1;1;1;1.01;1.03;1.06;1.11;1.17;1.26;1.36;1.5;1.64;1.74;1.83;1.89;1.94;1.97;1.99;2;2;2" begin="h.begin+.125s" dur=".5s" fill="freeze"/></use></g><animate id="i" attributeName="opacity" values="0;0;0;0.01;0.03;0.06;0.11;0.17;0.26;0.36;0.5;0.64;0.74;0.83;0.89;0.94;0.97;0.99;1;1;1" begin=".25s" dur=".5s" fill="freeze"/><animateTransform id="j" attributeName="transform" type="translate" values="0 0;0 -0.04;0 -0.31;0 -1.04;0 -2.46;0 -4.81;0 -8.32;0 -13.21;0 -19.71;0 -28.07;0 -38.5;0 -48.93;0 -57.29;0 -63.79;0 -68.68;0 -72.19;0 -74.54;0 -75.96;0 -76.69;0 -76.96;0 -77" begin="i.end+.25s" dur=".5s" fill="freeze"/><animate attributeName="opacity" values="1;1;1;0.99;0.98;0.97;0.95;0.91;0.87;0.82;0.75;0.68;0.63;0.59;0.55;0.53;0.52;0.51;0.5;0.5;0.5" begin="j.begin" dur=".5s" fill="freeze"/><animateTransform id="h" attributeName="transform" type="translate" values="0 -77;-0.18 -77;-1.42 -76.98;-4.79 -76.95;-11.36 -76.87;-22.19 -76.75;-38.34 -76.57;-60.88 -76.31;-90.88 -75.98;-129.4 -75.54;-177.5 -75;-225.6 -74.46;-264.12 -74.02;-294.12 -73.69;-316.66 -73.43;-332.81 -73.25;-343.64 -73.13;-350.21 -73.05;-353.58 -73.02;-354.82 -73;-355 -73" begin="j.end+.5s" dur=".75s" fill="freeze"/></g><g opacity="0"><use href="#k" transform="translate(450 180)"/><animateTransform id="l" attributeName="transform" type="translate" values="0 57;0 56.97;0 56.77;0 56.23;0 55.18;0 53.44;0 50.84;0 47.22;0 42.41;0 36.22;0 28.5;0 20.78;0 14.59;0 9.78;0 6.16;0 3.56;0 1.82;0 0.77;0 0.23;0 0.03;0 0" begin="i.end+.25s" dur=".5s" fill="freeze"/><animate attributeName="opacity" values="0;0;0;0.01;0.03;0.06;0.11;0.17;0.26;0.36;0.5;0.64;0.74;0.83;0.89;0.94;0.97;0.99;1;1;1" begin="l.begin" dur=".5s" fill="freeze"/><animateTransform attributeName="transform" type="translate" values="0 0;-0.17 0.04;-1.35 0.32;-4.56 1.08;-10.82 2.56;-21.13 5;-36.5 8.64;-57.97 13.72;-86.53 20.48;-123.2 29.16;-169 40;-214.8 50.84;-251.47 59.52;-280.03 66.28;-301.5 71.36;-316.88 75;-327.18 77.44;-333.44 78.92;-336.65 79.68;-337.83 79.96;-338 80" begin="h.begin" dur=".75s" fill="freeze"/></g></g></g><clipPath id="m"><circle r="0"><animate attributeName="r" values="0;0.51;4.06;13.71;32.49;63.46;109.66;174.14;259.94;370.12;507.7;645.29;755.46;841.26;905.74;951.94;982.91;1001.7;1011.34;1014.9;1015.41" begin="h.begin" dur=".75s" fill="freeze"/></circle></clipPath><g transform="translate(940 718)" clip-path="url(#m)"><g transform="translate(-940 -718) translate(222)"><use href="#n"/><circle transform="translate(-1000 -1000)" r="100" fill="#fff" fill-opacity=".1"><animateTransform attributeName="transform" type="translate" values="-100 -100;-54.1 -70;-8.2 -40;37.7 -10;83.6 20;129.5 50;175.4 80;221.3 110;267.2 140;313.1 170;359 200;404.9 230;450.8 260;496.7 290;542.6 320;588.5 350;634.4 380;680.3 410;726.2 440;772.1 470;818 500" begin="-1024s" dur="32s" fill="freeze" repeatCount="indefinite"/></circle><circle transform="translate(-1000 -1000)" r="80" fill="#fff" fill-opacity=".1"><animateTransform attributeName="transform" type="translate" values="400 -80;391 -52;382 -24;373 4;364 32;355 60;346 88;337 116;328 144;319 172;310 200;301 228;292 256;283 284;274 312;265 340;256 368;247 396;238 424;229 452;220 480" begin="-1024s" dur="25s" fill="freeze" repeatCount="indefinite"/></circle><circle transform="translate(-1000 -1000)" r="120" fill="#fff" fill-opacity=".1"><animateTransform attributeName="transform" type="translate" values="838 520;808.07 488;778.13 456;748.2 424;718.27 392;688.33 360;658.4 328;628.47 296;598.53 264;568.6 232;538.67 200;508.73 168;478.8 136;448.87 104;418.93 72;389 40;359.07 8;329.13 -24;299.2 -56;269.27 -88;239.33 -120" begin="-1024s" dur="28s" fill="freeze" repeatCount="indefinite"/></circle></g></g></svg>
