<svg width="940" height="400" fill="none" xmlns="http://www.w3.org/2000/svg"
    xmlns:xlink="http://www.w3.org/1999/xlink">
    <defs>
        <linearGradient id="b" x1="488.9" y1="183" x2="492.6" y2="206.3"
            gradientUnits="userSpaceOnUse">
            <stop offset="0" stop-color="#076DB4" />
            <stop offset=".8" stop-color="#0461AF" />
        </linearGradient>
        <linearGradient id="c" x1="486.7" y1="186.5" x2="497.3" y2="274.8"
            gradientUnits="userSpaceOnUse">
            <stop stop-color="#33BEF0" />
            <stop offset="1" stop-color="#0A85D9" />
        </linearGradient>
        <linearGradient id="d" x1="517" y1="231.9" x2="517" y2="255.9"
            gradientUnits="userSpaceOnUse">
            <stop stop-color="#21AD64" />
            <stop offset="1" stop-color="#088242" />
        </linearGradient>
        <linearGradient id="e" x1="512.6" y1="227" x2="512.6" y2="251.1"
            gradientUnits="userSpaceOnUse">
            <stop stop-color="#9DFFCE" />
            <stop offset="1" stop-color="#50D18D" />
        </linearGradient>
        <linearGradient id="f" x1="506" y1="238.8" x2="519.9" y2="238.8"
            gradientUnits="userSpaceOnUse">
            <stop offset=".8" stop-color="#135D36" />
            <stop offset=".9" stop-color="#125933" />
            <stop offset="1" stop-color="#11522F" />
        </linearGradient>
        <path id="g" transform="translate(-30 -38.5)"
            d="M1 39V.6H4v17.7h6.2V.6h3.1V39h-3.1V21.1H4V39H1Zm26.5-9.9h3a53.1 53.1 0 0 1 .1 4.4c0 2-.6 3.6-1.5 4.5-.8.9-2.3 1.3-4.4 1.3-2.2 0-3.8-.4-4.7-1.3-1-1-1.5-2.4-1.6-4.5l-.1-5.7v-6.3l.1-5.7c.1-2.1.7-3.6 1.6-4.5 1-1 2.5-1.4 4.6-1.4 2 0 3.6.4 4.5 1.3 1 .9 1.4 2.4 1.5 4.5a99.2 99.2 0 0 1 0 9.6h-9v8.5c0 1.1.3 2 .7 2.4.5.4 1.2.6 2.3.6 1 0 1.7-.2 2.1-.6.5-.5.7-1.3.8-2.4V29Zm-2.9-16.7c-1 0-1.8.2-2.3.7-.4.5-.7 1.2-.7 2.3v7.4h6v-4.5l-.1-3c0-1-.3-1.7-.8-2.2-.4-.5-1.1-.7-2-.7ZM37.4 39l-4-28.8h3.3l1.5 14 1.3 12.3h.9l1.3-12.2 1.5-14.1h3.3l-4.3 32.7c-.3 2-1 3.6-1.8 4.5-1 .9-2.5 1.3-4.6 1.3-1 0-2 0-2.9-.2V46l1.3.1h1.5c1.2 0 2-.2 2.4-.6.4-.4.7-1.2.9-2.4l.5-4.1h-2.1Zm14.1-7.6-.5-21V.6h3.4v9.8l-.5 21h-2.4ZM50 39v-4.3h5.4V39H50Z" />
        <path id="k" transform="translate(-77 -60)"
            d="M43.5 39V.6h3.2V39h-3.2Zm15.8.3c-2.2 0-3.8-.4-4.6-1.3-.8-1-1.3-2.4-1.3-4.5V12.7h-2v-2.5h2V2h3.3v8.2h4.2v2.5h-4.3v21c0 1.3.2 2 .5 2.5.3.4 1 .6 2.3.6h1c.4 0 .7 0 1-.2v2.5c-.6.2-1.3.2-2 .2Zm5.8-17.5v-4.2h5.4v4.2h-5.4Zm15.7 17.5c-2.1 0-3.6-.4-4.4-1.3-.8-1-1.3-2.4-1.3-4.5V29H78l-.1 2.6v2c0 1.2.3 2 .7 2.5.4.4 1.2.6 2.2.6 1 0 1.8-.2 2.3-.6.4-.5.7-1.3.7-2.4v-3.5c0-1.2-.1-2-.4-2.7-.2-.6-.8-1-1.6-1.4l-2.3-.7a6.5 6.5 0 0 1-3.5-2.3 9 9 0 0 1-1-4.7 20.3 20.3 0 0 1 0-2.7c0-2.1.5-3.6 1.4-4.5.8-1 2.4-1.4 4.6-1.4 2 0 3.5.4 4.3 1.3.9.9 1.3 2.4 1.4 4.5V20h-3v-4.6c0-1.2-.2-2-.6-2.4-.4-.4-1.1-.6-2.1-.6s-1.8.2-2.2.6c-.4.4-.6 1.2-.7 2.4v2.9c0 1.2.1 2.2.3 2.9.3.7.8 1.3 1.8 1.6l2.1.6c1.6.5 2.7 1.2 3.4 2.3.8 1 1.2 2.5 1.2 4.5a32.8 32.8 0 0 1-.1 3.4c0 2-.6 3.5-1.5 4.4-.8.9-2.3 1.3-4.5 1.3Zm-74 57C4.6 96.3 3 96 2.1 95 1 93.9.6 92.3.5 90a181.4 181.4 0 0 1 .1-7.9h3a93 93 0 0 0 0 8.4c0 1 .4 1.9.8 2.4.5.5 1.3.7 2.4.7 1 0 1.8-.2 2.3-.7.5-.5.7-1.3.8-2.4a34 34 0 0 0 0-4.6v-2.6c0-1.2-.2-2.2-.5-3-.3-.8-.9-1.4-1.8-1.6L5.1 78c-1.9-.4-3.1-1.2-3.7-2.4-.6-1.2-.9-2.9-1-5a113 113 0 0 1 .1-7c0-2.3.5-3.9 1.5-4.8 1-1 2.6-1.5 4.8-1.5 2.1 0 3.7.5 4.6 1.5 1 1 1.5 2.5 1.6 4.8v7.3H9.8a155.6 155.6 0 0 0 0-7.8C9.8 61 8.8 60 6.8 60c-1.1 0-1.9.3-2.4.8-.4.4-.7 1.2-.7 2.3A73 73 0 0 0 4 73.7c.4.7 1 1.2 2 1.5l2.3.5c2 .5 3.1 1.3 3.7 2.5.6 1.3 1 3 1 5a79.7 79.7 0 0 1 0 4.5V90c0 2.3-.6 3.9-1.6 4.9-1 1-2.5 1.4-4.7 1.4Zm14.9 0c-1.6 0-2.7-.5-3.4-1.4a7 7 0 0 1-1.3-4l-.1-1.2v-1.3a10 10 0 0 1 1.2-4.3c.7-1.2 2-2.3 3.7-3.4a32.6 32.6 0 0 1 4.3-2.2v-6c0-1-.2-1.8-.6-2.3-.4-.5-1.1-.8-2.2-.8-.9 0-1.6.2-2 .6-.5.4-.7 1.2-.7 2.4a39.6 39.6 0 0 0 0 4.6h-3.1a155.7 155.7 0 0 1 0-4.3c0-2 .5-3.5 1.4-4.4 1-1 2.4-1.4 4.6-1.4 2.2 0 3.7.5 4.5 1.5.8 1 1.2 2.5 1.3 4.7V96H26v-2.6h-.5c-.4 1-.9 1.7-1.5 2.2-.5.4-1.4.7-2.4.7Zm1-2.5c1.7 0 2.8-.9 3.4-2.7v-10a28.1 28.1 0 0 0-3.7 2.2c-.9.7-1.5 1.4-1.8 2.2-.3.9-.5 1.8-.5 3a11.2 11.2 0 0 0 0 2.2c0 1 .4 1.8.8 2.3.5.6 1.1.8 1.9.8ZM34.5 96V57.6h3.2V96h-3.2Zm15.4.3c-2.2 0-3.7-.4-4.6-1.3-.8-1-1.2-2.4-1.3-4.5V69.7h-2v-2.5h2V59h3.4v8.2h4.2v2.5h-4.3v21c0 1.3.1 2 .4 2.5.4.4 1.1.6 2.3.6H51c.3 0 .6 0 1-.2v2.5c-.7.2-1.4.2-2.2.2Zm13.8-10.2h3a53.1 53.1 0 0 1 .1 4.4c0 2-.6 3.6-1.4 4.5-1 .9-2.4 1.3-4.5 1.3-2.2 0-3.8-.4-4.7-1.3-1-1-1.5-2.4-1.6-4.5l-.1-5.7v-6.3l.1-5.7c.1-2.1.7-3.6 1.6-4.5 1-1 2.5-1.4 4.6-1.4 2 0 3.6.4 4.5 1.3 1 .9 1.4 2.4 1.5 4.5a99.2 99.2 0 0 1 0 9.6h-9v8.5c0 1.1.3 2 .7 2.4.5.4 1.3.6 2.3.6 1 0 1.7-.2 2.2-.6.4-.5.7-1.3.7-2.4V86Zm-2.9-16.7c-1 0-1.8.2-2.3.7-.4.5-.6 1.2-.6 2.3l-.1 3.9v3.5h6v-7.5c-.1-1-.4-1.7-.8-2.2-.5-.5-1.2-.7-2.2-.7Zm19.5-11.8h3.2V96h-3.2v-2.5h-.6c-.5.9-1 1.6-1.7 2.1a4 4 0 0 1-2.5.7c-1.6 0-2.7-.4-3.4-1.3-.8-.9-1.2-2.3-1.2-4.4a378.8 378.8 0 0 1 0-18c0-2 .4-3.5 1.2-4.4.8-.9 1.9-1.3 3.4-1.3 1.1 0 2 .2 2.6.7.6.5 1.2 1.2 1.6 2.1h.6V57.6Zm-3.8 36.2c1.9 0 3.2-1 3.8-2.9V72.3a4 4 0 0 0-1.5-2.2c-.6-.5-1.4-.7-2.3-.7-.8 0-1.4.2-1.8.7-.4.4-.6 1.2-.6 2.2-.2 6.7-.2 12.8 0 18.6 0 1 .2 1.8.5 2.3.4.4 1 .6 2 .6Zm12 2.2V57.6h10.9v2.9h-7.7v14.8h7.2V78h-7.2V96h-3.1Zm13.8-34.6v-3.8h5v3.8h-5Zm1 34.6V67.2h3.1V96h-3.1Zm13.8.3c-2.1 0-3.6-.4-4.4-1.3-.8-1-1.3-2.4-1.3-4.5V86h2.8v4.6c0 1.2.2 2 .7 2.5.4.4 1.1.6 2.2.6 1 0 1.8-.2 2.3-.6.4-.5.7-1.3.7-2.4v-3.5c0-1.2-.1-2-.4-2.7-.2-.6-.8-1-1.6-1.4l-2.3-.7a6.5 6.5 0 0 1-3.5-2.3 9 9 0 0 1-1-4.7 20.3 20.3 0 0 1 0-2.7c0-2.1.5-3.6 1.4-4.5.8-1 2.4-1.4 4.6-1.4 2 0 3.5.4 4.3 1.3.9.9 1.3 2.4 1.4 4.5V77h-3v-4.6c0-1.2-.2-2-.6-2.4-.4-.4-1.1-.6-2.1-.6s-1.8.2-2.2.6c-.4.4-.6 1.2-.7 2.4v2.9c0 1.2.1 2.2.3 2.9.2.7.8 1.3 1.8 1.6l2.1.6c1.5.5 2.7 1.2 3.4 2.3.8 1 1.2 2.5 1.2 4.5a33 33 0 0 1-.1 3.4c0 2-.6 3.5-1.5 4.4-.8.9-2.4 1.3-4.5 1.3Zm10.3-.3V57.6h3.2v12.1h.7c.5-1 1-1.6 1.6-2.1.7-.5 1.5-.7 2.6-.7 1.5 0 2.6.4 3.4 1.3.8.9 1.2 2.3 1.2 4.4V96h-3.2V72.3c0-1-.2-1.8-.6-2.2-.4-.5-1-.7-1.9-.7-2 0-3.2 1-3.8 2.9V96h-3.2Z" />
        <clipPath id="a">
            <path fill="#fff" transform="translate(451.5 175.5)" d="M0 0H78V82H0z" />
        </clipPath>
        <g id="n">
            <rect width="718" height="400" rx="15" fill="#0073C6" />
            <path d="M711 9H23C14.7157 9 8 15.7157 8 24V394C8 402.284 14.7157 409 23 409H711C719.284 409 726 402.284 726 394V24C726 15.7157 719.284 9 711 9Z" fill="#0073C6"/>
            <path d="M51.2 31H52.9V44H51.2V31ZM58.3 33.3H57.1L54.8 30.8H56.8L58.3 33.3ZM61.6 34.6H63V35.9L64 34.9C64.5315 34.546 65.1621 34.3708 65.8 34.4C66.6 34.4 67.2 34.6 67.6 34.9C67.9 35.1 68.1 35.5 68.4 35.9C68.7 35.4 69.1 34.9 69.6 34.7C70.1 34.5 70.6 34.4 71.2 34.4C72.5 34.4 73.3 34.8 73.8 35.7C74 36.2 74.1 36.9 74.1 37.7V44H72.5V37.5C72.5 36.8 72.3 36.4 72 36.2C71.7 35.9 71.3 35.8 70.9 35.8C70.3 35.8 69.7 36 69.3 36.4C68.8 36.9 68.6 37.6 68.6 38.5V44H67V37.9C67 37.2 67 36.8 66.8 36.5C66.5 36 66.1 35.8 65.4 35.8C64.8 35.8 64.3 36 63.8 36.5C63.3 37 63.1 37.8 63.1 39V44H61.5V34.6H61.6ZM87.2 30.7C88.9 30.7 90.2 31.2 91 32C92 32.9 92.4 33.9 92.5 35H90.8C90.6 34.1 90.3 33.5 89.7 33C89.1 32.5 88.3 32.3 87.3 32.3C86 32.3 85 32.7 84.2 33.6C83.4 34.5 83 35.9 83 37.7C82.9199 39.0095 83.2711 40.3092 84 41.4C84.8 42.4 85.8 42.8 87.2 42.8C88.5 42.8 89.5 42.3 90.2 41.3C90.5 40.8 90.8 40.1 91 39.3H92.7C92.5864 40.5672 92.0594 41.7619 91.2 42.7C90.6559 43.2527 89.9991 43.6816 89.2744 43.9577C88.5496 44.2338 87.7739 44.3505 87 44.3C85.5 44.3 84.2 43.9 83.2 43C81.9 41.8 81.2 40 81.2 37.4C81.2 35.5 81.7 33.9 82.7 32.7C83.8 31.4 85.3 30.7 87.2 30.7ZM96.2 34.6V40.8C96.2 41.3 96.2 41.8 96.4 42C96.7 42.6 97.2 42.9 98 42.9C99 42.9 99.8 42.4 100.2 41.4C100.4 40.9 100.5 40.1 100.5 39.2V34.6H102.1V44H100.6V42.6C100.5 43 100.2 43.3 99.9 43.6C99.3 44 98.6 44.3 97.7 44.3C96.4 44.3 95.4 43.8 95 42.9C94.6961 42.2791 94.5583 41.59 94.6 40.9V34.6H96.2ZM104.7 34.6H106.2V36.2C106.2 35.9 106.6 35.5 107.1 35.1C107.331 34.8598 107.612 34.6728 107.923 34.5519C108.234 34.431 108.567 34.3792 108.9 34.4H109.2V36.1C109.034 36.0818 108.866 36.0818 108.7 36.1C107.9 36.1 107.3 36.3 106.9 36.8C106.5 37.3 106.2 37.9 106.2 38.6V44H104.7V34.6ZM110.7 34.6H112.2V36.2C112.2 35.9 112.6 35.5 113.1 35.1C113.331 34.8598 113.612 34.6728 113.923 34.5519C114.234 34.431 114.567 34.3792 114.9 34.4H115.2V36.1C115.034 36.0826 114.866 36.0826 114.7 36.1C113.9 36.1 113.3 36.3 112.9 36.8C112.4 37.3 112.2 37.9 112.2 38.6V44H110.6V34.6H110.7ZM120.5 34.4C121.168 34.3765 121.831 34.5089 122.439 34.7866C123.047 35.0643 123.581 35.4798 124 36C124.3 36.4 124.5 37 124.6 37.6L124.8 39.7H117.8C117.9 40.7 118.1 41.4 118.5 42C119 42.6 119.6 42.9 120.5 42.9C121.102 42.9361 121.696 42.7535 122.174 42.386C122.652 42.0185 122.981 41.4908 123.1 40.9H124.6C124.6 41.3 124.5 41.7 124.2 42.1C123.95 42.6108 123.585 43.057 123.134 43.4039C122.683 43.7507 122.158 43.989 121.6 44.1L120.4 44.2C119.844 44.2196 119.29 44.123 118.773 43.9164C118.257 43.7098 117.789 43.3977 117.4 43C116.542 42.0043 116.111 40.7111 116.2 39.4C116.2 37.9 116.6 36.6 117.4 35.7C117.793 35.2398 118.285 34.8748 118.839 34.6323C119.393 34.3898 119.995 34.2762 120.6 34.3L120.5 34.4ZM123 38.5C123 37.9 122.8 37.3 122.6 36.9C122.2 36.1 121.4 35.8 120.4 35.8C119.7 35.8 119.1 36 118.6 36.5C118.095 37.0446 117.81 37.7573 117.8 38.5H123ZM130.2 34.3C131.3 34.3 132.2 34.6 132.8 35.1C133.5 35.6 133.9 36.5 134 37.8H132.5C132.4 37.2 132.2 36.7 131.9 36.3C131.5 35.9 130.9 35.7 130.2 35.7C129.2 35.7 128.5 36.2 128.1 37.2C127.8 37.8 127.7 38.6 127.7 39.6C127.7 40.6 127.9 41.3 128.3 42C128.7 42.6 129.3 43 130.1 43C130.402 43.0119 130.703 42.9551 130.98 42.8339C131.258 42.7126 131.504 42.5301 131.7 42.3C132.1 41.9 132.4 41.3 132.5 40.7H134C133.9 41.9 133.4 42.8 132.7 43.4C132 44 131.1 44.3 130 44.3C128.8 44.3 127.8 43.8 127 42.9C126.3 42 126 40.9 126 39.6C126 37.9 126.4 36.6 127.2 35.6C128 34.8 129 34.3 130.2 34.3ZM136 32H137.6V34.6H139.1V35.9H137.6V42C137.6 42.4 137.7 42.6 138 42.7H139.1V44L138.6 44.1H137.9C137.2 44.1 136.7 44 136.4 43.6C136.2 43.2 136 42.7 136 42.1V36H134.8V34.7H136V32ZM140.8 31H142.4V44H140.8V31ZM150.6 34.6H152.4C151.379 37.2588 150.379 39.9256 149.4 42.6C148.5 45.1 147.9 46.6 147.5 47.1C147.1 47.6 146.5 47.9 145.5 47.9C145.193 47.8692 144.891 47.802 144.6 47.7V46.3C144.926 46.3981 145.261 46.465 145.6 46.5C145.8 46.5 146 46.5 146.2 46.3L146.5 46L146.8 45.2C147 44.8 147.2 44.5 147.2 44.2L143.8 34.6H145.6L148.1 42.3L150.6 34.6ZM159 31H168V32.6H160.8V36.5H167.1V38H160.8V44H159V31ZM173.4 43C174.4 43 175.2 42.6 175.5 41.8C175.908 40.959 176.113 40.0344 176.1 39.1C176.1 38.3 176 37.5 175.7 37C175.3 36.1 174.5 35.7 173.4 35.7C172.4 35.7 171.7 36.1 171.3 36.8C170.9 37.5 170.6 38.4 170.6 39.5C170.6 40.5 170.9 41.3 171.3 42C171.7 42.6 172.4 43 173.3 43H173.4ZM173.4 34.3C174.7 34.3 175.7 34.7 176.5 35.5C177.4 36.3 177.8 37.5 177.8 39.1C177.8 40.6 177.4 41.9 176.7 42.9C175.9 43.9 174.7 44.3 173.2 44.3C171.9 44.3 170.9 43.9 170.2 43C169.4 42.2 169 41 169 39.5C169 37.9 169.4 36.7 170.2 35.7C170.593 35.2398 171.085 34.8748 171.639 34.6323C172.193 34.3898 172.795 34.2762 173.4 34.3ZM183.3 34.3C184.3 34.3 185.3 34.6 185.9 35.1C186.6 35.6 186.9 36.5 187.1 37.8H185.5C185.5 37.2 185.2 36.7 184.9 36.3C184.6 35.9 184 35.7 183.3 35.7C182.3 35.7 181.6 36.2 181.1 37.2C180.9 37.8 180.7 38.6 180.7 39.6C180.7 40.6 180.9 41.3 181.3 42C181.7 42.6 182.3 43 183.2 43C183.486 42.9971 183.767 42.9332 184.026 42.8125C184.285 42.6917 184.514 42.517 184.7 42.3C185.1 41.9 185.4 41.3 185.5 40.7H187.1C186.9 41.9 186.5 42.8 185.8 43.4C185.1 44 184.2 44.3 183.1 44.3C181.8 44.3 180.9 43.8 180.1 42.9C179.4 42 179.1 40.9 179.1 39.6C179.1 37.9 179.4 36.6 180.2 35.6C181 34.8 182.1 34.3 183.3 34.3ZM190.3 34.6V40.8C190.3 41.3 190.3 41.8 190.5 42C190.8 42.6 191.3 42.9 192.1 42.9C193.1 42.9 193.9 42.4 194.3 41.4C194.5 40.9 194.6 40.1 194.6 39.2V34.6H196.2V44H194.7V42.6L194 43.6C193.4 44 192.6 44.3 191.8 44.3C190.4 44.3 189.5 43.8 189 42.9C188.696 42.2791 188.558 41.59 188.6 40.9V34.6H190.3ZM199.6 41C199.6 41.6 199.8 42 200 42.3C200.4 42.8 201.1 43 202.1 43C202.626 43.0006 203.144 42.8626 203.6 42.6C204.1 42.4 204.3 42 204.3 41.5C204.326 41.3025 204.292 41.1018 204.203 40.9236C204.114 40.7454 203.973 40.5979 203.8 40.5L202.4 40.1L201.2 39.8C200.4 39.6 199.8 39.4 199.4 39.1C199.086 38.9188 198.827 38.6556 198.651 38.3386C198.474 38.0215 198.388 37.6625 198.4 37.3C198.4 36.4 198.7 35.7 199.4 35.2C200 34.6 200.8 34.3 201.9 34.3C203.3 34.3 204.4 34.8 204.9 35.6C205.4 36.1 205.6 36.6 205.6 37.3H204C204 36.9 203.8 36.6 203.6 36.3C203.2 35.9 202.6 35.7 201.7 35.7C201.1 35.7 200.7 35.8 200.3 36C200.145 36.1111 200.025 36.2643 199.954 36.4415C199.883 36.6187 199.864 36.8125 199.9 37C199.9 37.4 200.1 37.7 200.5 38L201.5 38.3L202.5 38.6C203.337 38.7377 204.148 39.0077 204.9 39.4C205.5 39.8 205.8 40.4 205.8 41.3C205.8 42.1 205.5 42.8 204.8 43.4C204.2 44.1 203.2 44.4 201.9 44.4C200.5 44.4 199.5 44 198.9 43.4C198.4 42.8 198 42 198 41H199.5H199.6ZM207.6 34.6H209.3V44H207.7V34.6H207.6ZM207.6 31.1H209.3V32.9H207.7V31L207.6 31.1ZM211.7 34.6H213.2V35.9C213.6 35.4 214.2 34.9 214.6 34.7C215.1 34.5 215.6 34.4 216.3 34.4C217.6 34.4 218.5 34.8 219 35.8C219.2 36.3 219.4 37 219.4 38V44H217.8V38C217.8 37.5 217.7 37 217.5 36.7C217.2 36.1 216.7 35.8 216 35.8L215 35.9C214.6 36 214.2 36.3 214 36.7C213.6 37 213.5 37.3 213.4 37.7L213.3 39.1V44H211.7V34.6ZM225 34.4C225.8 34.4 226.4 34.6 227 35L227.9 35.9V34.7H229.3V43.2C229.3 44.4 229.2 45.4 228.8 46.1C228.2 47.3 226.9 48 225.1 48C224.1 48 223.2 47.8 222.5 47.3C221.9 46.8 221.5 46.1 221.4 45.2H223C223 45.6 223.2 45.9 223.4 46.2C223.8 46.5 224.4 46.7 225.1 46.7C226.3 46.7 227.1 46.2 227.5 45.4C227.7 44.9 227.8 44 227.8 42.7C227.5 43.2 227.1 43.5 226.7 43.7C226.2 44 225.7 44.1 224.9 44.1C223.9 44.1 223 43.8 222.2 43.1C221.5 42.3 221.1 41.1 221.1 39.4C221.1 37.9 221.5 36.6 222.2 35.7C223 34.9 223.9 34.4 225 34.4ZM227.9 39.3C227.9 38.1 227.6 37.3 227.2 36.7C226.7 36.1 226.1 35.8 225.3 35.8C224.3 35.8 223.5 36.3 223 37.4C222.8 37.9 222.7 38.7 222.7 39.6C222.7 40.6 222.9 41.4 223.4 42C223.8 42.5 224.4 42.8 225.1 42.8C226.2 42.8 227.1 42.3 227.5 41.3C227.769 40.6679 227.906 39.9871 227.9 39.3ZM232.6 34.7H234.4V36.7H232.6V34.7ZM232.6 42.1H234.4V44H232.6V42V42.1ZM228.1 244.5C227.6 244.5 227.1 244.3 226.6 243.9C226.2 243.6 226 243.1 226 242.6V215.4H219.7V242.6C219.7 242.8 219.7 243.1 219.5 243.3C219.404 243.523 219.269 243.726 219.1 243.9C218.905 244.099 218.672 244.255 218.413 244.358C218.155 244.462 217.878 244.51 217.6 244.5C217.042 244.497 216.506 244.283 216.1 243.9C215.746 243.556 215.533 243.093 215.5 242.6V215.4H209.3V233C209.294 233.246 209.238 233.489 209.135 233.712C209.032 233.936 208.884 234.136 208.7 234.3C208.505 234.499 208.272 234.655 208.013 234.758C207.755 234.862 207.478 234.91 207.2 234.9C206.677 234.873 206.18 234.66 205.8 234.3C205.446 233.956 205.233 233.493 205.2 233V215.5H198.9V233C198.9 233.5 198.7 234 198.3 234.3C197.9 234.7 197.4 234.9 196.8 234.9C190.784 235 184.968 232.738 180.6 228.6C178.498 226.712 176.822 224.397 175.684 221.811C174.546 219.225 173.972 216.426 174 213.6C174 207.7 176.2 202.6 180.6 198.5C185.1 194.4 190.6 192.3 196.8 192.3C197.4 192.3 197.9 192.5 198.3 192.9C198.7 193.2 198.9 193.7 198.9 194.2V211.7H205.2V194C205.2 193.5 205.4 193 205.8 192.7C206.2 192.3 206.7 192.1 207.2 192.1C207.8 192.1 208.3 192.3 208.7 192.7C209.1 193 209.3 193.5 209.3 194V211.5H215.5V184.3C215.5 183.8 215.8 183.3 216.1 183C216.5 182.6 217.1 182.4 217.6 182.4C218.2 182.4 218.6 182.6 219.1 183C219.5 183.3 219.7 183.8 219.7 184.3V211.5H226V184.3C226 183.8 226.2 183.3 226.6 183C227 182.6 227.6 182.4 228.1 182.4C228.7 182.4 229.1 182.6 229.6 183C230 183.3 230.2 183.8 230.2 184.3V211.5H236.3V194C236.3 193.8 236.3 193.5 236.5 193.3C236.5 193 236.7 192.8 236.9 192.7C237.095 192.501 237.328 192.345 237.587 192.242C237.845 192.138 238.122 192.09 238.4 192.1C238.958 192.103 239.494 192.317 239.9 192.7L240.3 193.3L240.5 194V211.5H246.7V194C246.706 193.754 246.762 193.511 246.865 193.288C246.968 193.064 247.116 192.864 247.3 192.7C247.495 192.501 247.728 192.345 247.987 192.242C248.245 192.138 248.522 192.09 248.8 192.1C249.323 192.127 249.82 192.34 250.2 192.7C250.554 193.044 250.767 193.507 250.8 194V211.5H257.1V203.7C257.1 203.2 257.3 202.7 257.7 202.3C258.1 202 258.6 201.8 259.2 201.8C259.7 201.8 260.2 202 260.6 202.3C261 202.7 261.2 203.2 261.2 203.7V211.5H268.7L278.5 202.3C278.89 201.968 279.388 201.79 279.9 201.8C280.445 201.775 280.979 201.953 281.4 202.3C281.777 202.669 281.993 203.172 282 203.7C282.008 203.963 281.959 204.225 281.855 204.467C281.752 204.708 281.596 204.925 281.4 205.1L272.4 213.4L281.4 221.7C281.777 222.069 281.993 222.572 282 223.1C282.008 223.363 281.959 223.625 281.855 223.867C281.752 224.108 281.596 224.325 281.4 224.5C280.984 224.856 280.446 225.035 279.9 225C279.389 225.001 278.895 224.824 278.5 224.5L268.7 215.3H261.2V223.1C261.2 223.6 261 224.1 260.6 224.5C260.2 224.8 259.7 225 259.2 225C258.6 225 258.1 224.8 257.7 224.5C257.3 224.1 257.1 223.6 257.1 223.1V215.3H250.8V233L250.7 233.7C250.574 233.931 250.404 234.135 250.2 234.3C249.831 234.677 249.328 234.892 248.8 234.9C248.242 234.897 247.706 234.683 247.3 234.3C247.096 234.135 246.926 233.931 246.8 233.7L246.7 233V215.5H240.5V233C240.494 233.246 240.438 233.489 240.335 233.712C240.232 233.936 240.084 234.136 239.9 234.3C239.705 234.499 239.472 234.655 239.213 234.758C238.955 234.862 238.678 234.91 238.4 234.9C237.842 234.897 237.306 234.683 236.9 234.3C236.546 233.956 236.333 233.493 236.3 233V215.5H230.2V242.7C230.194 242.946 230.138 243.189 230.035 243.412C229.932 243.636 229.784 243.836 229.6 244C229.405 244.199 229.172 244.355 228.913 244.458C228.655 244.562 228.378 244.61 228.1 244.6V244.5ZM194.8 196.2C190.5 196.5 186.8 198.2 183.6 201.2C181.878 202.749 180.505 204.647 179.574 206.768C178.643 208.889 178.174 211.184 178.2 213.5C178.155 215.819 178.614 218.12 179.547 220.244C180.479 222.368 181.862 224.264 183.6 225.8C186.8 228.8 190.5 230.4 194.8 230.8V196.2Z" fill="white"/>
            <g clip-path="url(#clip0_1_56)">
            <path d="M495.111 239.073C515.988 239.073 532.912 223.37 532.912 204C532.912 184.63 515.988 168.927 495.111 168.927C474.234 168.927 457.31 184.63 457.31 204C457.31 223.37 474.234 239.073 495.111 239.073Z" fill="#FF2B51"/>
            <path fill-rule="evenodd" clip-rule="evenodd" d="M495.111 164C518.905 164 538.222 181.923 538.222 204C538.222 226.077 518.905 244 495.111 244C471.317 244 452 226.077 452 204C452 181.923 471.317 164 495.111 164ZM495.111 176.359C511.553 176.359 524.902 188.745 524.902 204C524.902 219.255 511.553 231.641 495.111 231.641C478.669 231.641 465.32 219.255 465.32 204C465.32 188.745 478.669 176.359 495.111 176.359Z" fill="white"/>
            <path fill-rule="evenodd" clip-rule="evenodd" d="M495.111 180.952C508.796 180.952 519.907 191.261 519.907 203.958C519.907 216.656 508.796 226.965 495.111 226.965C481.426 226.965 470.315 216.656 470.315 203.958C470.315 191.261 481.426 180.952 495.111 180.952ZM503.046 203.349C503.586 203.639 503.586 204.361 503.046 204.651L489.576 211.871C489.036 212.161 488.361 211.799 488.361 211.22V196.78C488.361 196.201 489.036 195.839 489.576 196.129L503.046 203.349Z" fill="white"/>
            </g>
            <rect x="440" y="221" width="117" height="29" rx="9" fill="#FF2B51" fill-opacity="0.8" stroke="white" stroke-width="2"/>
            <rect x="452" y="231" width="10" height="9" fill="white"/>
            <rect x="477" y="231" width="10" height="9" fill="white"/>
            <rect x="503" y="231" width="10" height="9" fill="white"/>
            <rect x="529" y="231" width="10" height="9" fill="white"/>
            <path d="M484.765 263.406C485.553 263.406 486.221 263.51 486.768 263.718C487.315 263.92 487.821 264.213 488.285 264.596L487.145 265.95C486.822 265.676 486.467 265.468 486.078 265.326C485.695 265.184 485.285 265.113 484.848 265.113C484.322 265.113 483.838 265.252 483.395 265.531C482.958 265.81 482.605 266.259 482.337 266.877C482.074 267.49 481.943 268.299 481.943 269.306C481.943 270.296 482.069 271.097 482.32 271.71C482.577 272.322 482.925 272.771 483.362 273.055C483.805 273.334 484.306 273.474 484.864 273.474C485.455 273.474 485.944 273.37 486.333 273.162C486.721 272.954 487.071 272.727 487.383 272.481L488.441 273.818C488.042 274.212 487.542 274.549 486.94 274.828C486.344 275.107 485.619 275.246 484.765 275.246C483.775 275.246 482.892 275.019 482.115 274.565C481.338 274.111 480.729 273.444 480.285 272.563C479.842 271.682 479.621 270.597 479.621 269.306C479.621 268.037 479.848 266.964 480.302 266.089C480.761 265.209 481.38 264.541 482.156 264.087C482.938 263.633 483.808 263.406 484.765 263.406ZM495.052 266.311V273.466H497.342V275H490.343V273.466H492.886V267.845H490.425V266.311H495.052ZM493.649 261.929C494.049 261.929 494.371 262.052 494.617 262.298C494.869 262.545 494.995 262.851 494.995 263.217C494.995 263.584 494.869 263.893 494.617 264.145C494.371 264.391 494.049 264.514 493.649 264.514C493.25 264.514 492.924 264.391 492.673 264.145C492.421 263.893 492.295 263.584 492.295 263.217C492.295 262.851 492.421 262.545 492.673 262.298C492.924 262.052 493.25 261.929 493.649 261.929ZM504.937 262.61L507.103 262.84V275H505.183L505.052 273.974C504.784 274.357 504.448 274.666 504.043 274.902C503.638 275.131 503.168 275.246 502.631 275.246C501.898 275.246 501.291 275.055 500.81 274.672C500.334 274.289 499.978 273.753 499.743 273.064C499.514 272.369 499.399 271.562 499.399 270.643C499.399 269.757 499.535 268.969 499.809 268.28C500.082 267.591 500.476 267.049 500.99 266.655C501.51 266.262 502.125 266.065 502.837 266.065C503.263 266.065 503.652 266.138 504.002 266.286C504.352 266.434 504.664 266.653 504.937 266.943V262.61ZM503.419 267.681C502.872 267.681 502.44 267.919 502.123 268.395C501.811 268.865 501.655 269.617 501.655 270.651C501.655 271.379 501.721 271.961 501.852 272.399C501.983 272.831 502.169 273.143 502.41 273.334C502.651 273.526 502.935 273.622 503.263 273.622C503.624 273.622 503.942 273.515 504.215 273.302C504.494 273.083 504.735 272.812 504.937 272.489V268.534C504.735 268.266 504.508 268.058 504.256 267.911C504.01 267.758 503.731 267.681 503.419 267.681ZM511.589 271.316C511.633 271.857 511.756 272.298 511.958 272.637C512.166 272.976 512.431 273.225 512.754 273.384C513.077 273.542 513.435 273.622 513.829 273.622C514.245 273.622 514.636 273.556 515.002 273.425C515.369 273.293 515.73 273.11 516.085 272.875L516.988 274.114C516.583 274.453 516.099 274.726 515.536 274.934C514.978 275.142 514.362 275.246 513.69 275.246C512.749 275.246 511.956 275.052 511.31 274.664C510.67 274.275 510.186 273.736 509.858 273.047C509.53 272.358 509.365 271.565 509.365 270.668C509.365 269.803 509.527 269.024 509.85 268.329C510.172 267.635 510.637 267.085 511.244 266.68C511.852 266.27 512.585 266.065 513.443 266.065C514.242 266.065 514.931 266.24 515.511 266.59C516.091 266.94 516.539 267.443 516.857 268.099C517.174 268.75 517.333 269.535 517.333 270.454C517.333 270.602 517.327 270.752 517.316 270.906C517.311 271.059 517.303 271.196 517.292 271.316H511.589ZM513.452 267.591C512.926 267.591 512.494 267.779 512.155 268.157C511.822 268.529 511.625 269.12 511.564 269.929H515.224C515.213 269.196 515.06 268.625 514.764 268.214C514.475 267.799 514.037 267.591 513.452 267.591ZM519.669 275V273.498H520.891V267.804H519.669V266.311H522.54L522.943 268.305C523.26 267.566 523.659 267.011 524.14 266.639C524.622 266.262 525.226 266.073 525.954 266.073C526.233 266.073 526.479 266.095 526.692 266.138C526.911 266.182 527.119 266.24 527.316 266.311L526.668 268.132C526.498 268.089 526.337 268.056 526.184 268.034C526.03 268.006 525.858 267.993 525.667 267.993C525.065 267.993 524.54 268.228 524.091 268.698C523.648 269.163 523.304 269.795 523.057 270.594V273.498H524.789V275H519.669ZM525.486 269.699V267.394L525.782 266.311H527.316L526.93 269.699H525.486ZM476.005 289.273C476.005 288.43 475.926 287.749 475.767 287.23C475.614 286.71 475.403 286.314 475.135 286.04C474.867 285.761 474.563 285.572 474.224 285.474C473.885 285.375 473.532 285.326 473.166 285.326H472.329V293.334H473.174C473.557 293.334 473.918 293.274 474.257 293.154C474.602 293.034 474.905 292.826 475.168 292.53C475.43 292.229 475.636 291.816 475.783 291.291C475.931 290.761 476.005 290.088 476.005 289.273ZM478.351 289.273C478.351 290.203 478.25 290.999 478.048 291.661C477.851 292.322 477.577 292.872 477.227 293.31C476.877 293.742 476.473 294.081 476.013 294.327C475.559 294.573 475.072 294.748 474.553 294.852C474.038 294.951 473.516 295 472.985 295H470.081V283.652H472.788C473.494 283.652 474.178 283.729 474.84 283.882C475.502 284.03 476.095 284.303 476.62 284.703C477.151 285.102 477.572 285.671 477.884 286.409C478.196 287.142 478.351 288.097 478.351 289.273ZM482.058 291.316C482.102 291.857 482.225 292.298 482.427 292.637C482.635 292.976 482.9 293.225 483.223 293.384C483.546 293.542 483.904 293.622 484.298 293.622C484.714 293.622 485.105 293.556 485.471 293.425C485.838 293.293 486.199 293.11 486.554 292.875L487.457 294.114C487.052 294.453 486.568 294.726 486.004 294.934C485.447 295.142 484.831 295.246 484.158 295.246C483.217 295.246 482.424 295.052 481.779 294.664C481.139 294.275 480.655 293.736 480.327 293.047C479.998 292.358 479.834 291.565 479.834 290.668C479.834 289.803 479.996 289.024 480.318 288.329C480.641 287.635 481.106 287.085 481.713 286.68C482.32 286.27 483.053 286.065 483.912 286.065C484.711 286.065 485.4 286.24 485.98 286.59C486.56 286.94 487.008 287.443 487.325 288.099C487.643 288.75 487.801 289.535 487.801 290.454C487.801 290.602 487.796 290.752 487.785 290.906C487.78 291.059 487.771 291.196 487.76 291.316H482.058ZM483.92 287.591C483.395 287.591 482.963 287.779 482.624 288.157C482.29 288.529 482.093 289.12 482.033 289.929H485.693C485.682 289.196 485.529 288.625 485.233 288.214C484.943 287.799 484.506 287.591 483.92 287.591ZM493.362 293.646C493.871 293.646 494.278 293.559 494.585 293.384C494.896 293.203 495.052 292.951 495.052 292.629C495.052 292.415 495 292.235 494.896 292.087C494.798 291.939 494.601 291.803 494.306 291.677C494.01 291.546 493.567 291.401 492.976 291.242C492.418 291.1 491.929 290.925 491.508 290.717C491.092 290.504 490.767 290.23 490.531 289.896C490.302 289.563 490.187 289.142 490.187 288.633C490.187 288.124 490.329 287.678 490.613 287.295C490.898 286.907 491.308 286.606 491.844 286.393C492.386 286.174 493.037 286.065 493.797 286.065C494.541 286.065 495.192 286.163 495.75 286.36C496.308 286.551 496.786 286.792 497.186 287.082L496.3 288.403C495.949 288.179 495.569 287.998 495.159 287.862C494.754 287.719 494.317 287.648 493.846 287.648C493.337 287.648 492.965 287.722 492.73 287.87C492.501 288.017 492.386 288.223 492.386 288.485C492.386 288.671 492.443 288.83 492.558 288.961C492.678 289.087 492.892 289.21 493.198 289.33C493.51 289.445 493.953 289.585 494.527 289.749C495.091 289.902 495.58 290.082 495.996 290.29C496.417 290.498 496.743 290.774 496.972 291.119C497.202 291.464 497.317 291.915 497.317 292.473C497.317 293.102 497.134 293.622 496.767 294.032C496.401 294.442 495.917 294.748 495.315 294.951C494.719 295.148 494.07 295.246 493.37 295.246C492.55 295.246 491.833 295.129 491.221 294.893C490.608 294.658 490.088 294.355 489.662 293.983L490.786 292.719C491.125 292.987 491.51 293.209 491.943 293.384C492.38 293.559 492.853 293.646 493.362 293.646ZM507.809 286.311L504.584 290.184L508.121 295H505.569L502.221 290.241L505.421 286.311H507.809ZM502.098 282.61V295H499.932V282.84L502.098 282.61ZM517.242 294.516C516.92 294.729 516.529 294.904 516.069 295.041C515.61 295.178 515.112 295.246 514.576 295.246C513.515 295.246 512.716 294.973 512.18 294.426C511.644 293.873 511.376 293.14 511.376 292.227V287.845H509.489V286.311H511.376V284.399L513.542 284.136V286.311H516.414L516.192 287.845H513.542V292.218C513.542 292.667 513.651 292.995 513.87 293.203C514.089 293.411 514.442 293.515 514.929 293.515C515.24 293.515 515.525 293.479 515.782 293.408C516.044 293.332 516.282 293.236 516.496 293.121L517.242 294.516ZM523.197 286.065C524.061 286.065 524.794 286.253 525.396 286.631C525.998 287.008 526.454 287.542 526.766 288.231C527.083 288.915 527.242 289.716 527.242 290.635C527.242 291.576 527.083 292.391 526.766 293.08C526.449 293.769 525.989 294.303 525.388 294.68C524.786 295.057 524.053 295.246 523.189 295.246C522.33 295.246 521.597 295.063 520.99 294.696C520.388 294.324 519.929 293.797 519.611 293.113C519.294 292.424 519.135 291.603 519.135 290.651C519.135 289.743 519.294 288.945 519.611 288.255C519.929 287.566 520.391 287.03 520.998 286.647C521.605 286.259 522.338 286.065 523.197 286.065ZM523.197 287.697C522.59 287.697 522.136 287.935 521.835 288.411C521.539 288.887 521.392 289.634 521.392 290.651C521.392 291.68 521.539 292.432 521.835 292.908C522.13 293.378 522.582 293.613 523.189 293.613C523.796 293.613 524.247 293.378 524.543 292.908C524.838 292.432 524.986 291.674 524.986 290.635C524.986 289.623 524.838 288.882 524.543 288.411C524.247 287.935 523.799 287.697 523.197 287.697ZM533.919 286.065C534.684 286.065 535.297 286.253 535.757 286.631C536.222 287.003 536.558 287.531 536.766 288.214C536.979 288.898 537.086 289.705 537.086 290.635C537.086 291.526 536.957 292.32 536.7 293.014C536.443 293.709 536.066 294.256 535.568 294.655C535.076 295.049 534.468 295.246 533.746 295.246C532.86 295.246 532.144 294.932 531.597 294.303V298.348L529.43 298.577V286.311H531.334L531.449 287.369C531.793 286.921 532.179 286.592 532.606 286.385C533.032 286.171 533.47 286.065 533.919 286.065ZM533.287 287.689C532.92 287.689 532.598 287.799 532.319 288.017C532.045 288.236 531.804 288.507 531.597 288.83V292.719C531.793 293.014 532.018 293.236 532.269 293.384C532.521 293.531 532.805 293.605 533.123 293.605C533.675 293.605 534.096 293.375 534.386 292.916C534.682 292.451 534.829 291.699 534.829 290.659C534.829 289.926 534.769 289.344 534.649 288.912C534.534 288.474 534.362 288.162 534.132 287.976C533.902 287.785 533.62 287.689 533.287 287.689ZM475.741 315V303.652H477.989V313.178H482.994L482.756 315H475.741ZM493.002 306.311L490.057 315.016C489.816 315.728 489.504 316.337 489.121 316.846C488.738 317.355 488.254 317.757 487.669 318.052C487.089 318.353 486.378 318.531 485.536 318.586L485.265 317.018C485.85 316.936 486.318 316.813 486.668 316.649C487.018 316.485 487.297 316.269 487.505 316.001C487.718 315.733 487.901 315.399 488.055 315H487.316L484.469 306.311H486.758L488.727 313.556L490.779 306.311H493.002ZM495.059 315V313.498H496.282V307.804H495.059V306.311H497.931L498.333 308.305C498.65 307.566 499.05 307.011 499.531 306.639C500.012 306.262 500.617 306.073 501.344 306.073C501.623 306.073 501.87 306.095 502.083 306.138C502.302 306.182 502.51 306.24 502.707 306.311L502.058 308.132C501.889 308.089 501.727 308.056 501.574 308.034C501.421 308.006 501.249 307.993 501.057 307.993C500.456 307.993 499.93 308.228 499.482 308.698C499.039 309.163 498.694 309.795 498.448 310.594V313.498H500.179V315H495.059ZM500.877 309.699V307.394L501.172 306.311H502.707L502.321 309.699H500.877ZM509.818 306.311V313.466H512.107V315H505.108V313.466H507.652V307.845H505.19V306.311H509.818ZM508.415 301.929C508.814 301.929 509.137 302.052 509.383 302.298C509.635 302.545 509.761 302.851 509.761 303.217C509.761 303.584 509.635 303.893 509.383 304.145C509.137 304.391 508.814 304.514 508.415 304.514C508.016 304.514 507.69 304.391 507.438 304.145C507.187 303.893 507.061 303.584 507.061 303.217C507.061 302.851 507.187 302.545 507.438 302.298C507.69 302.052 508.016 301.929 508.415 301.929ZM519.038 313.507C519.421 313.507 519.779 313.436 520.113 313.293C520.452 313.151 520.778 312.971 521.089 312.752L522.074 314.138C521.691 314.461 521.229 314.726 520.687 314.934C520.146 315.142 519.566 315.246 518.948 315.246C518.04 315.246 517.26 315.057 516.609 314.68C515.964 314.297 515.466 313.766 515.116 313.088C514.771 312.404 514.599 311.611 514.599 310.709C514.599 309.817 514.774 309.021 515.124 308.321C515.48 307.615 515.983 307.063 516.634 306.664C517.29 306.264 518.073 306.065 518.981 306.065C519.604 306.065 520.168 306.155 520.671 306.335C521.18 306.51 521.645 306.773 522.066 307.123L521.106 308.452C520.783 308.228 520.449 308.058 520.105 307.944C519.766 307.823 519.413 307.763 519.046 307.763C518.406 307.763 517.884 307.996 517.479 308.461C517.08 308.92 516.88 309.669 516.88 310.709C516.88 311.392 516.973 311.939 517.159 312.35C517.351 312.76 517.608 313.055 517.93 313.236C518.259 313.416 518.628 313.507 519.038 313.507ZM527.815 313.646C528.324 313.646 528.731 313.559 529.038 313.384C529.35 313.203 529.505 312.951 529.505 312.629C529.505 312.415 529.453 312.235 529.35 312.087C529.251 311.939 529.054 311.803 528.759 311.677C528.463 311.546 528.02 311.401 527.43 311.242C526.872 311.1 526.382 310.925 525.961 310.717C525.545 310.504 525.22 310.23 524.984 309.896C524.755 309.563 524.64 309.142 524.64 308.633C524.64 308.124 524.782 307.678 525.066 307.295C525.351 306.907 525.761 306.606 526.297 306.393C526.839 306.174 527.49 306.065 528.25 306.065C528.994 306.065 529.645 306.163 530.203 306.36C530.761 306.551 531.239 306.792 531.639 307.082L530.753 308.403C530.403 308.179 530.022 307.998 529.612 307.862C529.207 307.719 528.77 307.648 528.299 307.648C527.791 307.648 527.419 307.722 527.183 307.87C526.954 308.017 526.839 308.223 526.839 308.485C526.839 308.671 526.896 308.83 527.011 308.961C527.131 309.087 527.345 309.21 527.651 309.33C527.963 309.445 528.406 309.585 528.98 309.749C529.544 309.902 530.033 310.082 530.449 310.29C530.87 310.498 531.196 310.774 531.425 311.119C531.655 311.464 531.77 311.915 531.77 312.473C531.77 313.102 531.587 313.622 531.22 314.032C530.854 314.442 530.37 314.748 529.768 314.951C529.172 315.148 528.524 315.246 527.823 315.246C527.003 315.246 526.286 315.129 525.674 314.893C525.061 314.658 524.541 314.355 524.115 313.983L525.239 312.719C525.578 312.987 525.964 313.209 526.396 313.384C526.833 313.559 527.306 313.646 527.815 313.646Z" fill="white"/>
            <path d="M190.318 276.31V279.649H194.461V281.307H190.318V286H188.07V274.652H195.257L195.019 276.31H190.318ZM202.287 277.311V284.466H204.576V286H197.577V284.466H200.121V278.845H197.659V277.311H202.287ZM200.884 272.929C201.283 272.929 201.606 273.052 201.852 273.298C202.103 273.545 202.229 273.851 202.229 274.217C202.229 274.584 202.103 274.893 201.852 275.145C201.606 275.391 201.283 275.514 200.884 275.514C200.484 275.514 200.159 275.391 199.907 275.145C199.656 274.893 199.53 274.584 199.53 274.217C199.53 273.851 199.656 273.545 199.907 273.298C200.159 273.052 200.484 272.929 200.884 272.929ZM210.44 284.646C210.949 284.646 211.356 284.559 211.663 284.384C211.975 284.203 212.13 283.951 212.13 283.629C212.13 283.415 212.078 283.235 211.975 283.087C211.876 282.939 211.679 282.803 211.384 282.677C211.088 282.546 210.645 282.401 210.055 282.242C209.497 282.1 209.007 281.925 208.586 281.717C208.17 281.504 207.845 281.23 207.609 280.896C207.38 280.563 207.265 280.142 207.265 279.633C207.265 279.124 207.407 278.678 207.691 278.295C207.976 277.907 208.386 277.606 208.922 277.393C209.464 277.174 210.115 277.065 210.875 277.065C211.619 277.065 212.27 277.163 212.828 277.36C213.386 277.551 213.864 277.792 214.264 278.082L213.378 279.403C213.028 279.179 212.647 278.998 212.237 278.862C211.832 278.719 211.395 278.648 210.924 278.648C210.416 278.648 210.044 278.722 209.808 278.87C209.579 279.017 209.464 279.223 209.464 279.485C209.464 279.671 209.521 279.83 209.636 279.961C209.756 280.087 209.97 280.21 210.276 280.33C210.588 280.445 211.031 280.585 211.605 280.749C212.169 280.902 212.658 281.082 213.074 281.29C213.495 281.498 213.821 281.774 214.05 282.119C214.28 282.464 214.395 282.915 214.395 283.473C214.395 284.102 214.212 284.622 213.845 285.032C213.479 285.442 212.995 285.748 212.393 285.951C211.797 286.148 211.149 286.246 210.448 286.246C209.628 286.246 208.911 286.129 208.299 285.893C207.686 285.658 207.166 285.355 206.74 284.983L207.864 283.719C208.203 283.987 208.589 284.209 209.021 284.384C209.458 284.559 209.931 284.646 210.44 284.646ZM219.143 273.635V278.287C219.504 277.877 219.909 277.571 220.358 277.368C220.812 277.166 221.285 277.065 221.777 277.065C222.576 277.065 223.175 277.292 223.574 277.746C223.979 278.194 224.181 278.826 224.181 279.641V286H222.015V280.125C222.015 279.6 221.933 279.228 221.769 279.009C221.61 278.79 221.337 278.681 220.949 278.681C220.719 278.681 220.495 278.736 220.276 278.845C220.062 278.949 219.86 279.091 219.669 279.272C219.483 279.452 219.308 279.655 219.143 279.879V286H216.977V273.848L219.143 273.635ZM232.359 282.652C232.359 282.193 232.269 281.835 232.089 281.577C231.914 281.32 231.67 281.14 231.358 281.036C231.047 280.926 230.691 280.872 230.292 280.872H228.897V284.318H230.193C230.461 284.318 230.724 284.296 230.981 284.252C231.238 284.209 231.471 284.129 231.678 284.014C231.892 283.894 232.059 283.724 232.179 283.506C232.299 283.287 232.359 283.002 232.359 282.652ZM231.925 277.737C231.925 277.223 231.763 276.854 231.441 276.63C231.123 276.405 230.653 276.293 230.029 276.293H228.897V279.288H230.128C230.74 279.288 231.192 279.168 231.482 278.927C231.777 278.681 231.925 278.284 231.925 277.737ZM234.69 282.71C234.69 283.35 234.564 283.883 234.312 284.31C234.066 284.736 233.73 285.073 233.303 285.319C232.876 285.565 232.392 285.74 231.851 285.844C231.315 285.948 230.754 286 230.169 286H226.649V274.652H229.964C230.522 274.652 231.052 274.699 231.555 274.792C232.059 274.885 232.507 275.043 232.901 275.268C233.3 275.486 233.615 275.782 233.845 276.154C234.08 276.526 234.197 276.988 234.197 277.541C234.197 278.005 234.099 278.405 233.902 278.738C233.711 279.072 233.454 279.343 233.131 279.551C232.814 279.753 232.472 279.901 232.105 279.994C232.515 280.059 232.917 280.188 233.311 280.379C233.711 280.565 234.039 280.847 234.296 281.225C234.558 281.597 234.69 282.092 234.69 282.71ZM240.275 277.065C241.139 277.065 241.872 277.253 242.474 277.631C243.076 278.008 243.532 278.542 243.844 279.231C244.162 279.915 244.32 280.716 244.32 281.635C244.32 282.576 244.162 283.391 243.844 284.08C243.527 284.769 243.068 285.303 242.466 285.68C241.864 286.057 241.131 286.246 240.267 286.246C239.408 286.246 238.675 286.063 238.068 285.696C237.466 285.324 237.007 284.797 236.689 284.113C236.372 283.424 236.213 282.603 236.213 281.651C236.213 280.743 236.372 279.945 236.689 279.255C237.007 278.566 237.469 278.03 238.076 277.647C238.683 277.259 239.416 277.065 240.275 277.065ZM240.275 278.697C239.668 278.697 239.214 278.935 238.913 279.411C238.618 279.887 238.47 280.634 238.47 281.651C238.47 282.68 238.618 283.432 238.913 283.908C239.208 284.378 239.66 284.613 240.267 284.613C240.874 284.613 241.325 284.378 241.621 283.908C241.916 283.432 242.064 282.674 242.064 281.635C242.064 280.623 241.916 279.882 241.621 279.411C241.325 278.935 240.877 278.697 240.275 278.697ZM246.509 286V277.311H248.396L248.552 278.386C248.924 277.948 249.342 277.62 249.807 277.401C250.272 277.177 250.772 277.065 251.309 277.065C252.091 277.065 252.687 277.292 253.097 277.746C253.508 278.194 253.713 278.826 253.713 279.641V286H251.546V280.486C251.546 280.049 251.519 279.698 251.464 279.436C251.41 279.168 251.306 278.976 251.153 278.862C250.999 278.741 250.778 278.681 250.488 278.681C250.253 278.681 250.026 278.733 249.807 278.837C249.594 278.941 249.391 279.08 249.2 279.255C249.014 279.43 248.839 279.625 248.675 279.838V286H246.509ZM258.198 282.316C258.242 282.857 258.365 283.298 258.568 283.637C258.776 283.976 259.041 284.225 259.364 284.384C259.686 284.542 260.045 284.622 260.438 284.622C260.854 284.622 261.245 284.556 261.612 284.425C261.978 284.293 262.339 284.11 262.695 283.875L263.597 285.114C263.193 285.453 262.709 285.726 262.145 285.934C261.587 286.142 260.972 286.246 260.299 286.246C259.358 286.246 258.565 286.052 257.919 285.664C257.279 285.275 256.795 284.736 256.467 284.047C256.139 283.358 255.975 282.565 255.975 281.668C255.975 280.803 256.136 280.024 256.459 279.329C256.782 278.635 257.247 278.085 257.854 277.68C258.461 277.27 259.194 277.065 260.053 277.065C260.851 277.065 261.541 277.24 262.12 277.59C262.7 277.94 263.149 278.443 263.466 279.099C263.783 279.75 263.942 280.535 263.942 281.454C263.942 281.602 263.937 281.752 263.926 281.906C263.92 282.059 263.912 282.196 263.901 282.316H258.198ZM260.061 278.591C259.536 278.591 259.104 278.779 258.765 279.157C258.431 279.529 258.234 280.12 258.174 280.929H261.833C261.822 280.196 261.669 279.625 261.374 279.214C261.084 278.799 260.646 278.591 260.061 278.591Z" fill="white"/>
          </g>
    </defs>
    <g transform="translate(20 20)">
        <rect width="900" height="360" rx="15" fill="#F4F5F6" />
        <g fill="#333">
            <g opacity="0">
                <g transform="translate(450 180)">
                    <use href="#g">
                        <animateTransform attributeName="transform" type="scale"
                            values="1;1;1;1.01;1.03;1.06;1.11;1.17;1.26;1.36;1.5;1.64;1.74;1.83;1.89;1.94;1.97;1.99;2;2;2"
                            begin="h.begin+0.125s" dur="0.5s" fill="freeze" />
                    </use>
                </g>
                <animate id="i" attributeName="opacity"
                    values="0;0;0;0.01;0.03;0.06;0.11;0.17;0.26;0.36;0.5;0.64;0.74;0.83;0.89;0.94;0.97;0.99;1;1;1"
                    begin="0.25s" dur="0.5s" fill="freeze" />
                <animateTransform id="j" attributeName="transform" type="translate"
                    values="0 0;0 -0.04;0 -0.31;0 -1.04;0 -2.46;0 -4.81;0 -8.32;0 -13.21;0 -19.71;0 -28.07;0 -38.5;0 -48.93;0 -57.29;0 -63.79;0 -68.68;0 -72.19;0 -74.54;0 -75.96;0 -76.69;0 -76.96;0 -77"
                    begin="i.end+0.25s" dur="0.5s" fill="freeze" />
                <animate attributeName="opacity"
                    values="1;1;1;0.99;0.98;0.97;0.95;0.91;0.87;0.82;0.75;0.68;0.63;0.59;0.55;0.53;0.52;0.51;0.5;0.5;0.5"
                    begin="j.begin" dur="0.5s" fill="freeze" />
                <animateTransform id="h" attributeName="transform" type="translate"
                    values="0 -77;-0.18 -77;-1.42 -76.98;-4.79 -76.95;-11.36 -76.87;-22.19 -76.75;-38.34 -76.57;-60.88 -76.31;-90.88 -75.98;-129.4 -75.54;-177.5 -75;-225.6 -74.46;-264.12 -74.02;-294.12 -73.69;-316.66 -73.43;-332.81 -73.25;-343.64 -73.13;-350.21 -73.05;-353.58 -73.02;-354.82 -73;-355 -73"
                    begin="j.end+0.5s" dur="0.75s" fill="freeze" />
            </g>
            <g opacity="0">
                <use href="#k" transform="translate(450 180)" />
                <animateTransform id="l" attributeName="transform" type="translate"
                    values="0 57;0 56.97;0 56.77;0 56.23;0 55.18;0 53.44;0 50.84;0 47.22;0 42.41;0 36.22;0 28.5;0 20.78;0 14.59;0 9.78;0 6.16;0 3.56;0 1.82;0 0.77;0 0.23;0 0.03;0 0"
                    begin="i.end+0.25s" dur="0.5s" fill="freeze" />
                <animate attributeName="opacity"
                    values="0;0;0;0.01;0.03;0.06;0.11;0.17;0.26;0.36;0.5;0.64;0.74;0.83;0.89;0.94;0.97;0.99;1;1;1"
                    begin="l.begin" dur="0.5s" fill="freeze" />
                <animateTransform attributeName="transform" type="translate"
                    values="0 0;-0.17 0.04;-1.35 0.32;-4.56 1.08;-10.82 2.56;-21.13 5;-36.5 8.64;-57.97 13.72;-86.53 20.48;-123.2 29.16;-169 40;-214.8 50.84;-251.47 59.52;-280.03 66.28;-301.5 71.36;-316.88 75;-327.18 77.44;-333.44 78.92;-336.65 79.68;-337.83 79.96;-338 80"
                    begin="h.begin" dur="0.75s" fill="freeze" />
            </g>
        </g>
    </g>
    <clipPath id="m">
        <circle r="0">
            <animate attributeName="r"
                values="0;0.51;4.06;13.71;32.49;63.46;109.66;174.14;259.94;370.12;507.7;645.29;755.46;841.26;905.74;951.94;982.91;1001.7;1011.34;1014.9;1015.41"
                begin="h.begin" dur="0.75s" fill="freeze" />
        </circle>
    </clipPath>
    <g transform="translate(940 718)" clip-path="url(#m)">
        <g transform="translate(-940 -718) translate(222)">
            <use href="#n" />
            <circle transform="translate(-1000 -1000)" r="100" fill="#fff" fill-opacity=".1">
                <animateTransform attributeName="transform" type="translate"
                    values="-100 -100;-54.1 -70;-8.2 -40;37.7 -10;83.6 20;129.5 50;175.4 80;221.3 110;267.2 140;313.1 170;359 200;404.9 230;450.8 260;496.7 290;542.6 320;588.5 350;634.4 380;680.3 410;726.2 440;772.1 470;818 500"
                    begin="-1024s" dur="32s" fill="freeze" repeatCount="indefinite" />
            </circle>
            <circle transform="translate(-1000 -1000)" r="80" fill="#fff" fill-opacity=".1">
                <animateTransform attributeName="transform" type="translate"
                    values="400 -80;391 -52;382 -24;373 4;364 32;355 60;346 88;337 116;328 144;319 172;310 200;301 228;292 256;283 284;274 312;265 340;256 368;247 396;238 424;229 452;220 480"
                    begin="-1024s" dur="25s" fill="freeze" repeatCount="indefinite" />
            </circle>
            <circle transform="translate(-1000 -1000)" r="120" fill="#fff" fill-opacity=".1">
                <animateTransform attributeName="transform" type="translate"
                    values="838 520;808.07 488;778.13 456;748.2 424;718.27 392;688.33 360;658.4 328;628.47 296;598.53 264;568.6 232;538.67 200;508.73 168;478.8 136;448.87 104;418.93 72;389 40;359.07 8;329.13 -24;299.2 -56;269.27 -88;239.33 -120"
                    begin="-1024s" dur="28s" fill="freeze" repeatCount="indefinite" />
            </circle>
        </g>
    </g>
</svg>
